M48
; DRILL file {KiCad 5.1.6-c6e7f7d~87~ubuntu18.04.1} date Mon Aug  3 08:46:42 2020
; FORMAT={-:-/ absolute / metric / decimal}
; #@! TF.CreationDate,2020-08-03T08:46:42-04:00
; #@! TF.GenerationSoftware,Kicad,Pcbnew,5.1.6-c6e7f7d~87~ubuntu18.04.1
FMAT,2
METRIC
T1C0.400
T2C0.500
T3C0.800
T4C1.000
T5C1.100
T6C1.600
T7C1.850
T8C3.200
%
G90
G05
T1
X108.712Y-108.966
X111.76Y-82.042
X113.03Y-70.866
X113.03Y-82.042
X113.118Y-68.057
X114.046Y-69.85
X118.745Y-136.525
X120.65Y-74.168
X121.92Y-82.042
X122.41Y-69.832
X123.19Y-82.042
X124.587Y-90.805
X128.016Y-69.841
X130.275Y-131.291
X134.544Y-90.932
X134.874Y-74.168
X136.068Y-68.14
X136.106Y-82.296
X136.835Y-73.887
X136.906Y-85.344
X137.16Y-87.884
X137.795Y-74.168
X139.338Y-85.49
X140.97Y-79.248
X141.351Y-125.349
X146.812Y-136.398
T2
X105.55Y-140.97
X106.253Y-139.273
X106.253Y-142.667
X107.95Y-138.57
X107.95Y-143.37
X109.647Y-139.273
X109.647Y-142.667
X110.35Y-140.97
X105.55Y-52.07
X106.253Y-50.373
X106.253Y-53.767
X107.95Y-49.67
X107.95Y-54.47
X109.647Y-50.373
X109.647Y-53.767
X110.35Y-52.07
T3
X106.68Y-106.045
X106.68Y-111.76
X108.204Y-75.184
X108.204Y-81.28
X112.395Y-106.045
X112.395Y-111.76
X116.84Y-106.045
X116.84Y-111.76
X118.618Y-75.184
X118.618Y-81.28
X121.92Y-106.045
X121.92Y-111.76
X126.746Y-75.184
X126.746Y-81.28
X127.635Y-110.49
X130.302Y-75.184
X130.302Y-81.28
X130.683Y-77.724
X132.461Y-79.307
X138.557Y-110.617
X139.827Y-112.395
X139.954Y-68.326
X140.97Y-64.77
X142.748Y-82.804
X143.256Y-75.692
X146.05Y-73.66
X146.304Y-82.804
X151.13Y-76.2
X154.686Y-67.818
X155.575Y-113.665
X155.575Y-118.11
X156.21Y-65.024
X156.718Y-74.168
X158.496Y-61.976
X120.015Y-85.979
X125.015Y-85.979
X107.315Y-91.52
X107.315Y-96.52
X125.73Y-116.078
X125.73Y-118.618
X125.73Y-121.158
X110.109Y-85.979
X115.109Y-85.979
X121.285Y-91.52
X121.285Y-96.52
T4
X129.54Y-104.14
X132.04Y-104.14
X134.54Y-104.14
X111.76Y-66.04
X114.26Y-66.04
X116.76Y-66.04
X147.32Y-104.14
X149.82Y-104.14
X152.32Y-104.14
X130.81Y-54.61
X130.81Y-57.15
X130.81Y-59.69
X130.81Y-62.23
X130.81Y-64.77
X133.35Y-54.61
X133.35Y-57.15
X133.35Y-59.69
X133.35Y-62.23
X133.35Y-64.77
X147.32Y-66.04
X149.82Y-66.04
X152.32Y-66.04
T6
X106.205Y-127.0
X114.505Y-127.0
X117.605Y-127.0
X148.115Y-140.97
X156.415Y-140.97
X159.515Y-140.97
X120.175Y-127.0
X128.475Y-127.0
X131.575Y-127.0
X148.115Y-127.0
X156.415Y-127.0
X159.515Y-127.0
X120.175Y-140.97
X128.475Y-140.97
X131.575Y-140.97
X134.145Y-140.97
X142.445Y-140.97
X145.545Y-140.97
X134.145Y-127.0
X142.445Y-127.0
X145.545Y-127.0
T7
X111.885Y-91.82
X111.885Y-96.52
X111.885Y-101.22
X116.715Y-91.82
X116.715Y-96.52
X116.715Y-101.22
T8
X107.95Y-140.97
X107.95Y-52.07
T5
G00X127.24Y-96.99
M15
G01X127.24Y-96.29
M16
G05
G00X136.84Y-96.99
M15
G01X136.84Y-96.29
M16
G05
G00X109.46Y-58.89
M15
G01X109.46Y-58.19
M16
G05
G00X119.06Y-58.89
M15
G01X119.06Y-58.19
M16
G05
G00X145.02Y-96.99
M15
G01X145.02Y-96.29
M16
G05
G00X154.62Y-96.99
M15
G01X154.62Y-96.29
M16
G05
G00X145.02Y-58.89
M15
G01X145.02Y-58.19
M16
G05
G00X154.62Y-58.89
M15
G01X154.62Y-58.19
M16
G05
T0
M30
