M48
; DRILL file {KiCad 5.1.6-c6e7f7d~87~ubuntu18.04.1} date Sun Nov  8 19:07:01 2020
; FORMAT={-:-/ absolute / inch / decimal}
; #@! TF.CreationDate,2020-11-08T19:07:01-05:00
; #@! TF.GenerationSoftware,Kicad,Pcbnew,5.1.6-c6e7f7d~87~ubuntu18.04.1
; #@! TF.FileFunction,Plated,1,2,PTH
FMAT,2
INCH
T1C0.0157
T2C0.0197
T3C0.0315
T4C0.0394
T5C0.0433
T6C0.0630
T7C0.0728
T8C0.1260
%
G90
G05
T1
X4.28Y-4.29
X4.4Y-3.23
X4.45Y-2.79
X4.45Y-3.23
X4.4535Y-2.6794
X4.49Y-2.75
X4.675Y-5.375
X4.75Y-2.92
X4.8Y-3.23
X4.8193Y-2.7493
X4.85Y-3.23
X4.905Y-3.575
X5.04Y-2.7496
X5.1289Y-5.1689
X5.297Y-3.58
X5.31Y-2.92
X5.357Y-2.6827
X5.3585Y-3.24
X5.3872Y-2.9089
X5.39Y-3.36
X5.4Y-3.46
X5.425Y-2.92
X5.4857Y-3.3657
X5.55Y-3.12
X5.565Y-4.935
X5.78Y-5.37
T2
X4.1555Y-2.05
X4.1832Y-1.9832
X4.1832Y-2.1168
X4.25Y-1.9555
X4.25Y-2.1445
X4.3168Y-1.9832
X4.3168Y-2.1168
X4.3445Y-2.05
X4.1555Y-5.55
X4.1832Y-5.4832
X4.1832Y-5.6168
X4.25Y-5.4555
X4.25Y-5.6445
X4.3168Y-5.4832
X4.3168Y-5.6168
X4.3445Y-5.55
T3
X4.2Y-4.175
X4.2Y-4.4
X4.26Y-2.96
X4.26Y-3.2
X4.425Y-4.175
X4.425Y-4.4
X4.6Y-4.175
X4.6Y-4.4
X4.67Y-2.96
X4.67Y-3.2
X4.8Y-4.175
X4.8Y-4.4
X4.99Y-2.96
X4.99Y-3.2
X5.025Y-4.35
X5.13Y-2.96
X5.13Y-3.2
X5.145Y-3.06
X5.215Y-3.1223
X5.455Y-4.355
X5.505Y-4.425
X5.51Y-2.69
X5.55Y-2.55
X5.62Y-3.26
X5.64Y-2.98
X5.75Y-2.9
X5.76Y-3.26
X5.95Y-3.0
X6.09Y-2.67
X6.125Y-4.475
X6.125Y-4.65
X6.15Y-2.56
X6.17Y-2.92
X6.24Y-2.44
X4.725Y-3.385
X4.9219Y-3.385
X4.225Y-3.6031
X4.225Y-3.8
X4.95Y-4.57
X4.95Y-4.67
X4.95Y-4.77
X4.335Y-3.385
X4.5319Y-3.385
X4.775Y-3.6031
X4.775Y-3.8
T4
X5.15Y-2.15
X5.15Y-2.25
X5.15Y-2.35
X5.15Y-2.45
X5.15Y-2.55
X5.25Y-2.15
X5.25Y-2.25
X5.25Y-2.35
X5.25Y-2.45
X5.25Y-2.55
X4.4Y-2.6
X4.4984Y-2.6
X4.5969Y-2.6
X5.1Y-4.1
X5.1984Y-4.1
X5.2969Y-4.1
X5.8Y-4.1
X5.8984Y-4.1
X5.9969Y-4.1
X5.8Y-2.6
X5.8984Y-2.6
X5.9969Y-2.6
T6
X4.7313Y-5.0
X5.0581Y-5.0
X5.1801Y-5.0
X5.2813Y-5.55
X5.6081Y-5.55
X5.7301Y-5.55
X5.8313Y-5.55
X6.1581Y-5.55
X6.2801Y-5.55
X5.8313Y-5.0
X6.1581Y-5.0
X6.2801Y-5.0
X4.1813Y-5.0
X4.5081Y-5.0
X4.6301Y-5.0
X4.7313Y-5.55
X5.0581Y-5.55
X5.1801Y-5.55
X5.2813Y-5.0
X5.6081Y-5.0
X5.7301Y-5.0
T7
X4.4049Y-3.615
X4.4049Y-3.8
X4.4049Y-3.985
X4.5951Y-3.615
X4.5951Y-3.8
X4.5951Y-3.985
T8
X4.25Y-2.05
X4.25Y-5.55
T5
G00X4.3094Y-2.3185
M15
G01X4.3094Y-2.2909
M16
G05
G00X4.6874Y-2.3185
M15
G01X4.6874Y-2.2909
M16
G05
G00X5.0094Y-3.8185
M15
G01X5.0094Y-3.7909
M16
G05
G00X5.3874Y-3.8185
M15
G01X5.3874Y-3.7909
M16
G05
G00X5.7094Y-3.8185
M15
G01X5.7094Y-3.7909
M16
G05
G00X6.0874Y-3.8185
M15
G01X6.0874Y-3.7909
M16
G05
G00X5.7094Y-2.3185
M15
G01X5.7094Y-2.2909
M16
G05
G00X6.0874Y-2.3185
M15
G01X6.0874Y-2.2909
M16
G05
T0
M30
