G04 #@! TF.GenerationSoftware,KiCad,Pcbnew,5.1.6-c6e7f7d~87~ubuntu18.04.1*
G04 #@! TF.CreationDate,2020-08-03T08:46:45-04:00*
G04 #@! TF.ProjectId,2164SVF,32313634-5356-4462-9e6b-696361645f70,1*
G04 #@! TF.SameCoordinates,Original*
G04 #@! TF.FileFunction,Paste,Bot*
G04 #@! TF.FilePolarity,Positive*
%FSLAX46Y46*%
G04 Gerber Fmt 4.6, Leading zero omitted, Abs format (unit mm)*
G04 Created by KiCad (PCBNEW 5.1.6-c6e7f7d~87~ubuntu18.04.1) date 2020-08-03 08:46:45*
%MOMM*%
%LPD*%
G01*
G04 APERTURE LIST*
%ADD10R,0.800000X1.900000*%
%ADD11R,1.200000X0.900000*%
%ADD12R,0.900000X1.200000*%
G04 APERTURE END LIST*
G36*
G01*
X107759500Y-93599000D02*
X106870500Y-93599000D01*
G75*
G02*
X106553000Y-93281500I0J317500D01*
G01*
X106553000Y-92646500D01*
G75*
G02*
X106870500Y-92329000I317500J0D01*
G01*
X107759500Y-92329000D01*
G75*
G02*
X108077000Y-92646500I0J-317500D01*
G01*
X108077000Y-93281500D01*
G75*
G02*
X107759500Y-93599000I-317500J0D01*
G01*
G37*
G36*
G01*
X107759500Y-95694500D02*
X106870500Y-95694500D01*
G75*
G02*
X106553000Y-95377000I0J317500D01*
G01*
X106553000Y-94742000D01*
G75*
G02*
X106870500Y-94424500I317500J0D01*
G01*
X107759500Y-94424500D01*
G75*
G02*
X108077000Y-94742000I0J-317500D01*
G01*
X108077000Y-95377000D01*
G75*
G02*
X107759500Y-95694500I-317500J0D01*
G01*
G37*
G36*
G01*
X121729500Y-93599000D02*
X120840500Y-93599000D01*
G75*
G02*
X120523000Y-93281500I0J317500D01*
G01*
X120523000Y-92646500D01*
G75*
G02*
X120840500Y-92329000I317500J0D01*
G01*
X121729500Y-92329000D01*
G75*
G02*
X122047000Y-92646500I0J-317500D01*
G01*
X122047000Y-93281500D01*
G75*
G02*
X121729500Y-93599000I-317500J0D01*
G01*
G37*
G36*
G01*
X121729500Y-95694500D02*
X120840500Y-95694500D01*
G75*
G02*
X120523000Y-95377000I0J317500D01*
G01*
X120523000Y-94742000D01*
G75*
G02*
X120840500Y-94424500I317500J0D01*
G01*
X121729500Y-94424500D01*
G75*
G02*
X122047000Y-94742000I0J-317500D01*
G01*
X122047000Y-95377000D01*
G75*
G02*
X121729500Y-95694500I-317500J0D01*
G01*
G37*
G36*
G01*
X113030000Y-86423500D02*
X113030000Y-85534500D01*
G75*
G02*
X113347500Y-85217000I317500J0D01*
G01*
X113982500Y-85217000D01*
G75*
G02*
X114300000Y-85534500I0J-317500D01*
G01*
X114300000Y-86423500D01*
G75*
G02*
X113982500Y-86741000I-317500J0D01*
G01*
X113347500Y-86741000D01*
G75*
G02*
X113030000Y-86423500I0J317500D01*
G01*
G37*
G36*
G01*
X110934500Y-86423500D02*
X110934500Y-85534500D01*
G75*
G02*
X111252000Y-85217000I317500J0D01*
G01*
X111887000Y-85217000D01*
G75*
G02*
X112204500Y-85534500I0J-317500D01*
G01*
X112204500Y-86423500D01*
G75*
G02*
X111887000Y-86741000I-317500J0D01*
G01*
X111252000Y-86741000D01*
G75*
G02*
X110934500Y-86423500I0J317500D01*
G01*
G37*
G36*
G01*
X122936000Y-86423500D02*
X122936000Y-85534500D01*
G75*
G02*
X123253500Y-85217000I317500J0D01*
G01*
X123888500Y-85217000D01*
G75*
G02*
X124206000Y-85534500I0J-317500D01*
G01*
X124206000Y-86423500D01*
G75*
G02*
X123888500Y-86741000I-317500J0D01*
G01*
X123253500Y-86741000D01*
G75*
G02*
X122936000Y-86423500I0J317500D01*
G01*
G37*
G36*
G01*
X120840500Y-86423500D02*
X120840500Y-85534500D01*
G75*
G02*
X121158000Y-85217000I317500J0D01*
G01*
X121793000Y-85217000D01*
G75*
G02*
X122110500Y-85534500I0J-317500D01*
G01*
X122110500Y-86423500D01*
G75*
G02*
X121793000Y-86741000I-317500J0D01*
G01*
X121158000Y-86741000D01*
G75*
G02*
X120840500Y-86423500I0J317500D01*
G01*
G37*
D10*
X156464000Y-68604000D03*
X155514000Y-71604000D03*
X157414000Y-71604000D03*
G36*
G01*
X142216000Y-121689000D02*
X142216000Y-121389000D01*
G75*
G02*
X142366000Y-121239000I150000J0D01*
G01*
X144016000Y-121239000D01*
G75*
G02*
X144166000Y-121389000I0J-150000D01*
G01*
X144166000Y-121689000D01*
G75*
G02*
X144016000Y-121839000I-150000J0D01*
G01*
X142366000Y-121839000D01*
G75*
G02*
X142216000Y-121689000I0J150000D01*
G01*
G37*
G36*
G01*
X142216000Y-120419000D02*
X142216000Y-120119000D01*
G75*
G02*
X142366000Y-119969000I150000J0D01*
G01*
X144016000Y-119969000D01*
G75*
G02*
X144166000Y-120119000I0J-150000D01*
G01*
X144166000Y-120419000D01*
G75*
G02*
X144016000Y-120569000I-150000J0D01*
G01*
X142366000Y-120569000D01*
G75*
G02*
X142216000Y-120419000I0J150000D01*
G01*
G37*
G36*
G01*
X142216000Y-119149000D02*
X142216000Y-118849000D01*
G75*
G02*
X142366000Y-118699000I150000J0D01*
G01*
X144016000Y-118699000D01*
G75*
G02*
X144166000Y-118849000I0J-150000D01*
G01*
X144166000Y-119149000D01*
G75*
G02*
X144016000Y-119299000I-150000J0D01*
G01*
X142366000Y-119299000D01*
G75*
G02*
X142216000Y-119149000I0J150000D01*
G01*
G37*
G36*
G01*
X142216000Y-117879000D02*
X142216000Y-117579000D01*
G75*
G02*
X142366000Y-117429000I150000J0D01*
G01*
X144016000Y-117429000D01*
G75*
G02*
X144166000Y-117579000I0J-150000D01*
G01*
X144166000Y-117879000D01*
G75*
G02*
X144016000Y-118029000I-150000J0D01*
G01*
X142366000Y-118029000D01*
G75*
G02*
X142216000Y-117879000I0J150000D01*
G01*
G37*
G36*
G01*
X137266000Y-117879000D02*
X137266000Y-117579000D01*
G75*
G02*
X137416000Y-117429000I150000J0D01*
G01*
X139066000Y-117429000D01*
G75*
G02*
X139216000Y-117579000I0J-150000D01*
G01*
X139216000Y-117879000D01*
G75*
G02*
X139066000Y-118029000I-150000J0D01*
G01*
X137416000Y-118029000D01*
G75*
G02*
X137266000Y-117879000I0J150000D01*
G01*
G37*
G36*
G01*
X137266000Y-119149000D02*
X137266000Y-118849000D01*
G75*
G02*
X137416000Y-118699000I150000J0D01*
G01*
X139066000Y-118699000D01*
G75*
G02*
X139216000Y-118849000I0J-150000D01*
G01*
X139216000Y-119149000D01*
G75*
G02*
X139066000Y-119299000I-150000J0D01*
G01*
X137416000Y-119299000D01*
G75*
G02*
X137266000Y-119149000I0J150000D01*
G01*
G37*
G36*
G01*
X137266000Y-120419000D02*
X137266000Y-120119000D01*
G75*
G02*
X137416000Y-119969000I150000J0D01*
G01*
X139066000Y-119969000D01*
G75*
G02*
X139216000Y-120119000I0J-150000D01*
G01*
X139216000Y-120419000D01*
G75*
G02*
X139066000Y-120569000I-150000J0D01*
G01*
X137416000Y-120569000D01*
G75*
G02*
X137266000Y-120419000I0J150000D01*
G01*
G37*
G36*
G01*
X137266000Y-121689000D02*
X137266000Y-121389000D01*
G75*
G02*
X137416000Y-121239000I150000J0D01*
G01*
X139066000Y-121239000D01*
G75*
G02*
X139216000Y-121389000I0J-150000D01*
G01*
X139216000Y-121689000D01*
G75*
G02*
X139066000Y-121839000I-150000J0D01*
G01*
X137416000Y-121839000D01*
G75*
G02*
X137266000Y-121689000I0J150000D01*
G01*
G37*
G36*
G01*
X110340000Y-79732000D02*
X110640000Y-79732000D01*
G75*
G02*
X110790000Y-79882000I0J-150000D01*
G01*
X110790000Y-81532000D01*
G75*
G02*
X110640000Y-81682000I-150000J0D01*
G01*
X110340000Y-81682000D01*
G75*
G02*
X110190000Y-81532000I0J150000D01*
G01*
X110190000Y-79882000D01*
G75*
G02*
X110340000Y-79732000I150000J0D01*
G01*
G37*
G36*
G01*
X111610000Y-79732000D02*
X111910000Y-79732000D01*
G75*
G02*
X112060000Y-79882000I0J-150000D01*
G01*
X112060000Y-81532000D01*
G75*
G02*
X111910000Y-81682000I-150000J0D01*
G01*
X111610000Y-81682000D01*
G75*
G02*
X111460000Y-81532000I0J150000D01*
G01*
X111460000Y-79882000D01*
G75*
G02*
X111610000Y-79732000I150000J0D01*
G01*
G37*
G36*
G01*
X112880000Y-79732000D02*
X113180000Y-79732000D01*
G75*
G02*
X113330000Y-79882000I0J-150000D01*
G01*
X113330000Y-81532000D01*
G75*
G02*
X113180000Y-81682000I-150000J0D01*
G01*
X112880000Y-81682000D01*
G75*
G02*
X112730000Y-81532000I0J150000D01*
G01*
X112730000Y-79882000D01*
G75*
G02*
X112880000Y-79732000I150000J0D01*
G01*
G37*
G36*
G01*
X114150000Y-79732000D02*
X114450000Y-79732000D01*
G75*
G02*
X114600000Y-79882000I0J-150000D01*
G01*
X114600000Y-81532000D01*
G75*
G02*
X114450000Y-81682000I-150000J0D01*
G01*
X114150000Y-81682000D01*
G75*
G02*
X114000000Y-81532000I0J150000D01*
G01*
X114000000Y-79882000D01*
G75*
G02*
X114150000Y-79732000I150000J0D01*
G01*
G37*
G36*
G01*
X114150000Y-74782000D02*
X114450000Y-74782000D01*
G75*
G02*
X114600000Y-74932000I0J-150000D01*
G01*
X114600000Y-76582000D01*
G75*
G02*
X114450000Y-76732000I-150000J0D01*
G01*
X114150000Y-76732000D01*
G75*
G02*
X114000000Y-76582000I0J150000D01*
G01*
X114000000Y-74932000D01*
G75*
G02*
X114150000Y-74782000I150000J0D01*
G01*
G37*
G36*
G01*
X112880000Y-74782000D02*
X113180000Y-74782000D01*
G75*
G02*
X113330000Y-74932000I0J-150000D01*
G01*
X113330000Y-76582000D01*
G75*
G02*
X113180000Y-76732000I-150000J0D01*
G01*
X112880000Y-76732000D01*
G75*
G02*
X112730000Y-76582000I0J150000D01*
G01*
X112730000Y-74932000D01*
G75*
G02*
X112880000Y-74782000I150000J0D01*
G01*
G37*
G36*
G01*
X111610000Y-74782000D02*
X111910000Y-74782000D01*
G75*
G02*
X112060000Y-74932000I0J-150000D01*
G01*
X112060000Y-76582000D01*
G75*
G02*
X111910000Y-76732000I-150000J0D01*
G01*
X111610000Y-76732000D01*
G75*
G02*
X111460000Y-76582000I0J150000D01*
G01*
X111460000Y-74932000D01*
G75*
G02*
X111610000Y-74782000I150000J0D01*
G01*
G37*
G36*
G01*
X110340000Y-74782000D02*
X110640000Y-74782000D01*
G75*
G02*
X110790000Y-74932000I0J-150000D01*
G01*
X110790000Y-76582000D01*
G75*
G02*
X110640000Y-76732000I-150000J0D01*
G01*
X110340000Y-76732000D01*
G75*
G02*
X110190000Y-76582000I0J150000D01*
G01*
X110190000Y-74932000D01*
G75*
G02*
X110340000Y-74782000I150000J0D01*
G01*
G37*
G36*
G01*
X132565000Y-79732000D02*
X132865000Y-79732000D01*
G75*
G02*
X133015000Y-79882000I0J-150000D01*
G01*
X133015000Y-81532000D01*
G75*
G02*
X132865000Y-81682000I-150000J0D01*
G01*
X132565000Y-81682000D01*
G75*
G02*
X132415000Y-81532000I0J150000D01*
G01*
X132415000Y-79882000D01*
G75*
G02*
X132565000Y-79732000I150000J0D01*
G01*
G37*
G36*
G01*
X133835000Y-79732000D02*
X134135000Y-79732000D01*
G75*
G02*
X134285000Y-79882000I0J-150000D01*
G01*
X134285000Y-81532000D01*
G75*
G02*
X134135000Y-81682000I-150000J0D01*
G01*
X133835000Y-81682000D01*
G75*
G02*
X133685000Y-81532000I0J150000D01*
G01*
X133685000Y-79882000D01*
G75*
G02*
X133835000Y-79732000I150000J0D01*
G01*
G37*
G36*
G01*
X135105000Y-79732000D02*
X135405000Y-79732000D01*
G75*
G02*
X135555000Y-79882000I0J-150000D01*
G01*
X135555000Y-81532000D01*
G75*
G02*
X135405000Y-81682000I-150000J0D01*
G01*
X135105000Y-81682000D01*
G75*
G02*
X134955000Y-81532000I0J150000D01*
G01*
X134955000Y-79882000D01*
G75*
G02*
X135105000Y-79732000I150000J0D01*
G01*
G37*
G36*
G01*
X136375000Y-79732000D02*
X136675000Y-79732000D01*
G75*
G02*
X136825000Y-79882000I0J-150000D01*
G01*
X136825000Y-81532000D01*
G75*
G02*
X136675000Y-81682000I-150000J0D01*
G01*
X136375000Y-81682000D01*
G75*
G02*
X136225000Y-81532000I0J150000D01*
G01*
X136225000Y-79882000D01*
G75*
G02*
X136375000Y-79732000I150000J0D01*
G01*
G37*
G36*
G01*
X137645000Y-79732000D02*
X137945000Y-79732000D01*
G75*
G02*
X138095000Y-79882000I0J-150000D01*
G01*
X138095000Y-81532000D01*
G75*
G02*
X137945000Y-81682000I-150000J0D01*
G01*
X137645000Y-81682000D01*
G75*
G02*
X137495000Y-81532000I0J150000D01*
G01*
X137495000Y-79882000D01*
G75*
G02*
X137645000Y-79732000I150000J0D01*
G01*
G37*
G36*
G01*
X138915000Y-79732000D02*
X139215000Y-79732000D01*
G75*
G02*
X139365000Y-79882000I0J-150000D01*
G01*
X139365000Y-81532000D01*
G75*
G02*
X139215000Y-81682000I-150000J0D01*
G01*
X138915000Y-81682000D01*
G75*
G02*
X138765000Y-81532000I0J150000D01*
G01*
X138765000Y-79882000D01*
G75*
G02*
X138915000Y-79732000I150000J0D01*
G01*
G37*
G36*
G01*
X140185000Y-79732000D02*
X140485000Y-79732000D01*
G75*
G02*
X140635000Y-79882000I0J-150000D01*
G01*
X140635000Y-81532000D01*
G75*
G02*
X140485000Y-81682000I-150000J0D01*
G01*
X140185000Y-81682000D01*
G75*
G02*
X140035000Y-81532000I0J150000D01*
G01*
X140035000Y-79882000D01*
G75*
G02*
X140185000Y-79732000I150000J0D01*
G01*
G37*
G36*
G01*
X141455000Y-79732000D02*
X141755000Y-79732000D01*
G75*
G02*
X141905000Y-79882000I0J-150000D01*
G01*
X141905000Y-81532000D01*
G75*
G02*
X141755000Y-81682000I-150000J0D01*
G01*
X141455000Y-81682000D01*
G75*
G02*
X141305000Y-81532000I0J150000D01*
G01*
X141305000Y-79882000D01*
G75*
G02*
X141455000Y-79732000I150000J0D01*
G01*
G37*
G36*
G01*
X141455000Y-74782000D02*
X141755000Y-74782000D01*
G75*
G02*
X141905000Y-74932000I0J-150000D01*
G01*
X141905000Y-76582000D01*
G75*
G02*
X141755000Y-76732000I-150000J0D01*
G01*
X141455000Y-76732000D01*
G75*
G02*
X141305000Y-76582000I0J150000D01*
G01*
X141305000Y-74932000D01*
G75*
G02*
X141455000Y-74782000I150000J0D01*
G01*
G37*
G36*
G01*
X140185000Y-74782000D02*
X140485000Y-74782000D01*
G75*
G02*
X140635000Y-74932000I0J-150000D01*
G01*
X140635000Y-76582000D01*
G75*
G02*
X140485000Y-76732000I-150000J0D01*
G01*
X140185000Y-76732000D01*
G75*
G02*
X140035000Y-76582000I0J150000D01*
G01*
X140035000Y-74932000D01*
G75*
G02*
X140185000Y-74782000I150000J0D01*
G01*
G37*
G36*
G01*
X138915000Y-74782000D02*
X139215000Y-74782000D01*
G75*
G02*
X139365000Y-74932000I0J-150000D01*
G01*
X139365000Y-76582000D01*
G75*
G02*
X139215000Y-76732000I-150000J0D01*
G01*
X138915000Y-76732000D01*
G75*
G02*
X138765000Y-76582000I0J150000D01*
G01*
X138765000Y-74932000D01*
G75*
G02*
X138915000Y-74782000I150000J0D01*
G01*
G37*
G36*
G01*
X137645000Y-74782000D02*
X137945000Y-74782000D01*
G75*
G02*
X138095000Y-74932000I0J-150000D01*
G01*
X138095000Y-76582000D01*
G75*
G02*
X137945000Y-76732000I-150000J0D01*
G01*
X137645000Y-76732000D01*
G75*
G02*
X137495000Y-76582000I0J150000D01*
G01*
X137495000Y-74932000D01*
G75*
G02*
X137645000Y-74782000I150000J0D01*
G01*
G37*
G36*
G01*
X136375000Y-74782000D02*
X136675000Y-74782000D01*
G75*
G02*
X136825000Y-74932000I0J-150000D01*
G01*
X136825000Y-76582000D01*
G75*
G02*
X136675000Y-76732000I-150000J0D01*
G01*
X136375000Y-76732000D01*
G75*
G02*
X136225000Y-76582000I0J150000D01*
G01*
X136225000Y-74932000D01*
G75*
G02*
X136375000Y-74782000I150000J0D01*
G01*
G37*
G36*
G01*
X135105000Y-74782000D02*
X135405000Y-74782000D01*
G75*
G02*
X135555000Y-74932000I0J-150000D01*
G01*
X135555000Y-76582000D01*
G75*
G02*
X135405000Y-76732000I-150000J0D01*
G01*
X135105000Y-76732000D01*
G75*
G02*
X134955000Y-76582000I0J150000D01*
G01*
X134955000Y-74932000D01*
G75*
G02*
X135105000Y-74782000I150000J0D01*
G01*
G37*
G36*
G01*
X133835000Y-74782000D02*
X134135000Y-74782000D01*
G75*
G02*
X134285000Y-74932000I0J-150000D01*
G01*
X134285000Y-76582000D01*
G75*
G02*
X134135000Y-76732000I-150000J0D01*
G01*
X133835000Y-76732000D01*
G75*
G02*
X133685000Y-76582000I0J150000D01*
G01*
X133685000Y-74932000D01*
G75*
G02*
X133835000Y-74782000I150000J0D01*
G01*
G37*
G36*
G01*
X132565000Y-74782000D02*
X132865000Y-74782000D01*
G75*
G02*
X133015000Y-74932000I0J-150000D01*
G01*
X133015000Y-76582000D01*
G75*
G02*
X132865000Y-76732000I-150000J0D01*
G01*
X132565000Y-76732000D01*
G75*
G02*
X132415000Y-76582000I0J150000D01*
G01*
X132415000Y-74932000D01*
G75*
G02*
X132565000Y-74782000I150000J0D01*
G01*
G37*
G36*
G01*
X120500000Y-79732000D02*
X120800000Y-79732000D01*
G75*
G02*
X120950000Y-79882000I0J-150000D01*
G01*
X120950000Y-81532000D01*
G75*
G02*
X120800000Y-81682000I-150000J0D01*
G01*
X120500000Y-81682000D01*
G75*
G02*
X120350000Y-81532000I0J150000D01*
G01*
X120350000Y-79882000D01*
G75*
G02*
X120500000Y-79732000I150000J0D01*
G01*
G37*
G36*
G01*
X121770000Y-79732000D02*
X122070000Y-79732000D01*
G75*
G02*
X122220000Y-79882000I0J-150000D01*
G01*
X122220000Y-81532000D01*
G75*
G02*
X122070000Y-81682000I-150000J0D01*
G01*
X121770000Y-81682000D01*
G75*
G02*
X121620000Y-81532000I0J150000D01*
G01*
X121620000Y-79882000D01*
G75*
G02*
X121770000Y-79732000I150000J0D01*
G01*
G37*
G36*
G01*
X123040000Y-79732000D02*
X123340000Y-79732000D01*
G75*
G02*
X123490000Y-79882000I0J-150000D01*
G01*
X123490000Y-81532000D01*
G75*
G02*
X123340000Y-81682000I-150000J0D01*
G01*
X123040000Y-81682000D01*
G75*
G02*
X122890000Y-81532000I0J150000D01*
G01*
X122890000Y-79882000D01*
G75*
G02*
X123040000Y-79732000I150000J0D01*
G01*
G37*
G36*
G01*
X124310000Y-79732000D02*
X124610000Y-79732000D01*
G75*
G02*
X124760000Y-79882000I0J-150000D01*
G01*
X124760000Y-81532000D01*
G75*
G02*
X124610000Y-81682000I-150000J0D01*
G01*
X124310000Y-81682000D01*
G75*
G02*
X124160000Y-81532000I0J150000D01*
G01*
X124160000Y-79882000D01*
G75*
G02*
X124310000Y-79732000I150000J0D01*
G01*
G37*
G36*
G01*
X124310000Y-74782000D02*
X124610000Y-74782000D01*
G75*
G02*
X124760000Y-74932000I0J-150000D01*
G01*
X124760000Y-76582000D01*
G75*
G02*
X124610000Y-76732000I-150000J0D01*
G01*
X124310000Y-76732000D01*
G75*
G02*
X124160000Y-76582000I0J150000D01*
G01*
X124160000Y-74932000D01*
G75*
G02*
X124310000Y-74782000I150000J0D01*
G01*
G37*
G36*
G01*
X123040000Y-74782000D02*
X123340000Y-74782000D01*
G75*
G02*
X123490000Y-74932000I0J-150000D01*
G01*
X123490000Y-76582000D01*
G75*
G02*
X123340000Y-76732000I-150000J0D01*
G01*
X123040000Y-76732000D01*
G75*
G02*
X122890000Y-76582000I0J150000D01*
G01*
X122890000Y-74932000D01*
G75*
G02*
X123040000Y-74782000I150000J0D01*
G01*
G37*
G36*
G01*
X121770000Y-74782000D02*
X122070000Y-74782000D01*
G75*
G02*
X122220000Y-74932000I0J-150000D01*
G01*
X122220000Y-76582000D01*
G75*
G02*
X122070000Y-76732000I-150000J0D01*
G01*
X121770000Y-76732000D01*
G75*
G02*
X121620000Y-76582000I0J150000D01*
G01*
X121620000Y-74932000D01*
G75*
G02*
X121770000Y-74782000I150000J0D01*
G01*
G37*
G36*
G01*
X120500000Y-74782000D02*
X120800000Y-74782000D01*
G75*
G02*
X120950000Y-74932000I0J-150000D01*
G01*
X120950000Y-76582000D01*
G75*
G02*
X120800000Y-76732000I-150000J0D01*
G01*
X120500000Y-76732000D01*
G75*
G02*
X120350000Y-76582000I0J150000D01*
G01*
X120350000Y-74932000D01*
G75*
G02*
X120500000Y-74782000I150000J0D01*
G01*
G37*
G36*
G01*
X144976001Y-78798000D02*
X144075999Y-78798000D01*
G75*
G02*
X143826000Y-78548001I0J249999D01*
G01*
X143826000Y-77897999D01*
G75*
G02*
X144075999Y-77648000I249999J0D01*
G01*
X144976001Y-77648000D01*
G75*
G02*
X145226000Y-77897999I0J-249999D01*
G01*
X145226000Y-78548001D01*
G75*
G02*
X144976001Y-78798000I-249999J0D01*
G01*
G37*
G36*
G01*
X144976001Y-80848000D02*
X144075999Y-80848000D01*
G75*
G02*
X143826000Y-80598001I0J249999D01*
G01*
X143826000Y-79947999D01*
G75*
G02*
X144075999Y-79698000I249999J0D01*
G01*
X144976001Y-79698000D01*
G75*
G02*
X145226000Y-79947999I0J-249999D01*
G01*
X145226000Y-80598001D01*
G75*
G02*
X144976001Y-80848000I-249999J0D01*
G01*
G37*
G36*
G01*
X151696000Y-71177999D02*
X151696000Y-72078001D01*
G75*
G02*
X151446001Y-72328000I-249999J0D01*
G01*
X150795999Y-72328000D01*
G75*
G02*
X150546000Y-72078001I0J249999D01*
G01*
X150546000Y-71177999D01*
G75*
G02*
X150795999Y-70928000I249999J0D01*
G01*
X151446001Y-70928000D01*
G75*
G02*
X151696000Y-71177999I0J-249999D01*
G01*
G37*
G36*
G01*
X153746000Y-71177999D02*
X153746000Y-72078001D01*
G75*
G02*
X153496001Y-72328000I-249999J0D01*
G01*
X152845999Y-72328000D01*
G75*
G02*
X152596000Y-72078001I0J249999D01*
G01*
X152596000Y-71177999D01*
G75*
G02*
X152845999Y-70928000I249999J0D01*
G01*
X153496001Y-70928000D01*
G75*
G02*
X153746000Y-71177999I0J-249999D01*
G01*
G37*
G36*
G01*
X147378000Y-118421999D02*
X147378000Y-119322001D01*
G75*
G02*
X147128001Y-119572000I-249999J0D01*
G01*
X146477999Y-119572000D01*
G75*
G02*
X146228000Y-119322001I0J249999D01*
G01*
X146228000Y-118421999D01*
G75*
G02*
X146477999Y-118172000I249999J0D01*
G01*
X147128001Y-118172000D01*
G75*
G02*
X147378000Y-118421999I0J-249999D01*
G01*
G37*
G36*
G01*
X149428000Y-118421999D02*
X149428000Y-119322001D01*
G75*
G02*
X149178001Y-119572000I-249999J0D01*
G01*
X148527999Y-119572000D01*
G75*
G02*
X148278000Y-119322001I0J249999D01*
G01*
X148278000Y-118421999D01*
G75*
G02*
X148527999Y-118172000I249999J0D01*
G01*
X149178001Y-118172000D01*
G75*
G02*
X149428000Y-118421999I0J-249999D01*
G01*
G37*
G36*
G01*
X148287000Y-110940001D02*
X148287000Y-110039999D01*
G75*
G02*
X148536999Y-109790000I249999J0D01*
G01*
X149187001Y-109790000D01*
G75*
G02*
X149437000Y-110039999I0J-249999D01*
G01*
X149437000Y-110940001D01*
G75*
G02*
X149187001Y-111190000I-249999J0D01*
G01*
X148536999Y-111190000D01*
G75*
G02*
X148287000Y-110940001I0J249999D01*
G01*
G37*
G36*
G01*
X146237000Y-110940001D02*
X146237000Y-110039999D01*
G75*
G02*
X146486999Y-109790000I249999J0D01*
G01*
X147137001Y-109790000D01*
G75*
G02*
X147387000Y-110039999I0J-249999D01*
G01*
X147387000Y-110940001D01*
G75*
G02*
X147137001Y-111190000I-249999J0D01*
G01*
X146486999Y-111190000D01*
G75*
G02*
X146237000Y-110940001I0J249999D01*
G01*
G37*
G36*
G01*
X148278000Y-113734001D02*
X148278000Y-112833999D01*
G75*
G02*
X148527999Y-112584000I249999J0D01*
G01*
X149178001Y-112584000D01*
G75*
G02*
X149428000Y-112833999I0J-249999D01*
G01*
X149428000Y-113734001D01*
G75*
G02*
X149178001Y-113984000I-249999J0D01*
G01*
X148527999Y-113984000D01*
G75*
G02*
X148278000Y-113734001I0J249999D01*
G01*
G37*
G36*
G01*
X146228000Y-113734001D02*
X146228000Y-112833999D01*
G75*
G02*
X146477999Y-112584000I249999J0D01*
G01*
X147128001Y-112584000D01*
G75*
G02*
X147378000Y-112833999I0J-249999D01*
G01*
X147378000Y-113734001D01*
G75*
G02*
X147128001Y-113984000I-249999J0D01*
G01*
X146477999Y-113984000D01*
G75*
G02*
X146228000Y-113734001I0J249999D01*
G01*
G37*
G36*
G01*
X148278000Y-116528001D02*
X148278000Y-115627999D01*
G75*
G02*
X148527999Y-115378000I249999J0D01*
G01*
X149178001Y-115378000D01*
G75*
G02*
X149428000Y-115627999I0J-249999D01*
G01*
X149428000Y-116528001D01*
G75*
G02*
X149178001Y-116778000I-249999J0D01*
G01*
X148527999Y-116778000D01*
G75*
G02*
X148278000Y-116528001I0J249999D01*
G01*
G37*
G36*
G01*
X146228000Y-116528001D02*
X146228000Y-115627999D01*
G75*
G02*
X146477999Y-115378000I249999J0D01*
G01*
X147128001Y-115378000D01*
G75*
G02*
X147378000Y-115627999I0J-249999D01*
G01*
X147378000Y-116528001D01*
G75*
G02*
X147128001Y-116778000I-249999J0D01*
G01*
X146477999Y-116778000D01*
G75*
G02*
X146228000Y-116528001I0J249999D01*
G01*
G37*
G36*
G01*
X134054000Y-115258001D02*
X134054000Y-114357999D01*
G75*
G02*
X134303999Y-114108000I249999J0D01*
G01*
X134954001Y-114108000D01*
G75*
G02*
X135204000Y-114357999I0J-249999D01*
G01*
X135204000Y-115258001D01*
G75*
G02*
X134954001Y-115508000I-249999J0D01*
G01*
X134303999Y-115508000D01*
G75*
G02*
X134054000Y-115258001I0J249999D01*
G01*
G37*
G36*
G01*
X132004000Y-115258001D02*
X132004000Y-114357999D01*
G75*
G02*
X132253999Y-114108000I249999J0D01*
G01*
X132904001Y-114108000D01*
G75*
G02*
X133154000Y-114357999I0J-249999D01*
G01*
X133154000Y-115258001D01*
G75*
G02*
X132904001Y-115508000I-249999J0D01*
G01*
X132253999Y-115508000D01*
G75*
G02*
X132004000Y-115258001I0J249999D01*
G01*
G37*
G36*
G01*
X133163000Y-108769999D02*
X133163000Y-109670001D01*
G75*
G02*
X132913001Y-109920000I-249999J0D01*
G01*
X132262999Y-109920000D01*
G75*
G02*
X132013000Y-109670001I0J249999D01*
G01*
X132013000Y-108769999D01*
G75*
G02*
X132262999Y-108520000I249999J0D01*
G01*
X132913001Y-108520000D01*
G75*
G02*
X133163000Y-108769999I0J-249999D01*
G01*
G37*
G36*
G01*
X135213000Y-108769999D02*
X135213000Y-109670001D01*
G75*
G02*
X134963001Y-109920000I-249999J0D01*
G01*
X134312999Y-109920000D01*
G75*
G02*
X134063000Y-109670001I0J249999D01*
G01*
X134063000Y-108769999D01*
G75*
G02*
X134312999Y-108520000I249999J0D01*
G01*
X134963001Y-108520000D01*
G75*
G02*
X135213000Y-108769999I0J-249999D01*
G01*
G37*
G36*
G01*
X133163000Y-111563999D02*
X133163000Y-112464001D01*
G75*
G02*
X132913001Y-112714000I-249999J0D01*
G01*
X132262999Y-112714000D01*
G75*
G02*
X132013000Y-112464001I0J249999D01*
G01*
X132013000Y-111563999D01*
G75*
G02*
X132262999Y-111314000I249999J0D01*
G01*
X132913001Y-111314000D01*
G75*
G02*
X133163000Y-111563999I0J-249999D01*
G01*
G37*
G36*
G01*
X135213000Y-111563999D02*
X135213000Y-112464001D01*
G75*
G02*
X134963001Y-112714000I-249999J0D01*
G01*
X134312999Y-112714000D01*
G75*
G02*
X134063000Y-112464001I0J249999D01*
G01*
X134063000Y-111563999D01*
G75*
G02*
X134312999Y-111314000I249999J0D01*
G01*
X134963001Y-111314000D01*
G75*
G02*
X135213000Y-111563999I0J-249999D01*
G01*
G37*
G36*
G01*
X133145000Y-105975999D02*
X133145000Y-106876001D01*
G75*
G02*
X132895001Y-107126000I-249999J0D01*
G01*
X132244999Y-107126000D01*
G75*
G02*
X131995000Y-106876001I0J249999D01*
G01*
X131995000Y-105975999D01*
G75*
G02*
X132244999Y-105726000I249999J0D01*
G01*
X132895001Y-105726000D01*
G75*
G02*
X133145000Y-105975999I0J-249999D01*
G01*
G37*
G36*
G01*
X135195000Y-105975999D02*
X135195000Y-106876001D01*
G75*
G02*
X134945001Y-107126000I-249999J0D01*
G01*
X134294999Y-107126000D01*
G75*
G02*
X134045000Y-106876001I0J249999D01*
G01*
X134045000Y-105975999D01*
G75*
G02*
X134294999Y-105726000I249999J0D01*
G01*
X134945001Y-105726000D01*
G75*
G02*
X135195000Y-105975999I0J-249999D01*
G01*
G37*
G36*
G01*
X142805999Y-71316000D02*
X143706001Y-71316000D01*
G75*
G02*
X143956000Y-71565999I0J-249999D01*
G01*
X143956000Y-72216001D01*
G75*
G02*
X143706001Y-72466000I-249999J0D01*
G01*
X142805999Y-72466000D01*
G75*
G02*
X142556000Y-72216001I0J249999D01*
G01*
X142556000Y-71565999D01*
G75*
G02*
X142805999Y-71316000I249999J0D01*
G01*
G37*
G36*
G01*
X142805999Y-69266000D02*
X143706001Y-69266000D01*
G75*
G02*
X143956000Y-69515999I0J-249999D01*
G01*
X143956000Y-70166001D01*
G75*
G02*
X143706001Y-70416000I-249999J0D01*
G01*
X142805999Y-70416000D01*
G75*
G02*
X142556000Y-70166001I0J249999D01*
G01*
X142556000Y-69515999D01*
G75*
G02*
X142805999Y-69266000I249999J0D01*
G01*
G37*
G36*
G01*
X140912001Y-70407000D02*
X140011999Y-70407000D01*
G75*
G02*
X139762000Y-70157001I0J249999D01*
G01*
X139762000Y-69506999D01*
G75*
G02*
X140011999Y-69257000I249999J0D01*
G01*
X140912001Y-69257000D01*
G75*
G02*
X141162000Y-69506999I0J-249999D01*
G01*
X141162000Y-70157001D01*
G75*
G02*
X140912001Y-70407000I-249999J0D01*
G01*
G37*
G36*
G01*
X140912001Y-72457000D02*
X140011999Y-72457000D01*
G75*
G02*
X139762000Y-72207001I0J249999D01*
G01*
X139762000Y-71556999D01*
G75*
G02*
X140011999Y-71307000I249999J0D01*
G01*
X140912001Y-71307000D01*
G75*
G02*
X141162000Y-71556999I0J-249999D01*
G01*
X141162000Y-72207001D01*
G75*
G02*
X140912001Y-72457000I-249999J0D01*
G01*
G37*
G36*
G01*
X130752001Y-84903000D02*
X129851999Y-84903000D01*
G75*
G02*
X129602000Y-84653001I0J249999D01*
G01*
X129602000Y-84002999D01*
G75*
G02*
X129851999Y-83753000I249999J0D01*
G01*
X130752001Y-83753000D01*
G75*
G02*
X131002000Y-84002999I0J-249999D01*
G01*
X131002000Y-84653001D01*
G75*
G02*
X130752001Y-84903000I-249999J0D01*
G01*
G37*
G36*
G01*
X130752001Y-86953000D02*
X129851999Y-86953000D01*
G75*
G02*
X129602000Y-86703001I0J249999D01*
G01*
X129602000Y-86052999D01*
G75*
G02*
X129851999Y-85803000I249999J0D01*
G01*
X130752001Y-85803000D01*
G75*
G02*
X131002000Y-86052999I0J-249999D01*
G01*
X131002000Y-86703001D01*
G75*
G02*
X130752001Y-86953000I-249999J0D01*
G01*
G37*
G36*
G01*
X133546001Y-84894000D02*
X132645999Y-84894000D01*
G75*
G02*
X132396000Y-84644001I0J249999D01*
G01*
X132396000Y-83993999D01*
G75*
G02*
X132645999Y-83744000I249999J0D01*
G01*
X133546001Y-83744000D01*
G75*
G02*
X133796000Y-83993999I0J-249999D01*
G01*
X133796000Y-84644001D01*
G75*
G02*
X133546001Y-84894000I-249999J0D01*
G01*
G37*
G36*
G01*
X133546001Y-86944000D02*
X132645999Y-86944000D01*
G75*
G02*
X132396000Y-86694001I0J249999D01*
G01*
X132396000Y-86043999D01*
G75*
G02*
X132645999Y-85794000I249999J0D01*
G01*
X133546001Y-85794000D01*
G75*
G02*
X133796000Y-86043999I0J-249999D01*
G01*
X133796000Y-86694001D01*
G75*
G02*
X133546001Y-86944000I-249999J0D01*
G01*
G37*
G36*
G01*
X134423999Y-71307000D02*
X135324001Y-71307000D01*
G75*
G02*
X135574000Y-71556999I0J-249999D01*
G01*
X135574000Y-72207001D01*
G75*
G02*
X135324001Y-72457000I-249999J0D01*
G01*
X134423999Y-72457000D01*
G75*
G02*
X134174000Y-72207001I0J249999D01*
G01*
X134174000Y-71556999D01*
G75*
G02*
X134423999Y-71307000I249999J0D01*
G01*
G37*
G36*
G01*
X134423999Y-69257000D02*
X135324001Y-69257000D01*
G75*
G02*
X135574000Y-69506999I0J-249999D01*
G01*
X135574000Y-70157001D01*
G75*
G02*
X135324001Y-70407000I-249999J0D01*
G01*
X134423999Y-70407000D01*
G75*
G02*
X134174000Y-70157001I0J249999D01*
G01*
X134174000Y-69506999D01*
G75*
G02*
X134423999Y-69257000I249999J0D01*
G01*
G37*
G36*
G01*
X138118001Y-70407000D02*
X137217999Y-70407000D01*
G75*
G02*
X136968000Y-70157001I0J249999D01*
G01*
X136968000Y-69506999D01*
G75*
G02*
X137217999Y-69257000I249999J0D01*
G01*
X138118001Y-69257000D01*
G75*
G02*
X138368000Y-69506999I0J-249999D01*
G01*
X138368000Y-70157001D01*
G75*
G02*
X138118001Y-70407000I-249999J0D01*
G01*
G37*
G36*
G01*
X138118001Y-72457000D02*
X137217999Y-72457000D01*
G75*
G02*
X136968000Y-72207001I0J249999D01*
G01*
X136968000Y-71556999D01*
G75*
G02*
X137217999Y-71307000I249999J0D01*
G01*
X138118001Y-71307000D01*
G75*
G02*
X138368000Y-71556999I0J-249999D01*
G01*
X138368000Y-72207001D01*
G75*
G02*
X138118001Y-72457000I-249999J0D01*
G01*
G37*
G36*
G01*
X111563999Y-71316000D02*
X112464001Y-71316000D01*
G75*
G02*
X112714000Y-71565999I0J-249999D01*
G01*
X112714000Y-72216001D01*
G75*
G02*
X112464001Y-72466000I-249999J0D01*
G01*
X111563999Y-72466000D01*
G75*
G02*
X111314000Y-72216001I0J249999D01*
G01*
X111314000Y-71565999D01*
G75*
G02*
X111563999Y-71316000I249999J0D01*
G01*
G37*
G36*
G01*
X111563999Y-69266000D02*
X112464001Y-69266000D01*
G75*
G02*
X112714000Y-69515999I0J-249999D01*
G01*
X112714000Y-70166001D01*
G75*
G02*
X112464001Y-70416000I-249999J0D01*
G01*
X111563999Y-70416000D01*
G75*
G02*
X111314000Y-70166001I0J249999D01*
G01*
X111314000Y-69515999D01*
G75*
G02*
X111563999Y-69266000I249999J0D01*
G01*
G37*
G36*
G01*
X120453999Y-71307000D02*
X121354001Y-71307000D01*
G75*
G02*
X121604000Y-71556999I0J-249999D01*
G01*
X121604000Y-72207001D01*
G75*
G02*
X121354001Y-72457000I-249999J0D01*
G01*
X120453999Y-72457000D01*
G75*
G02*
X120204000Y-72207001I0J249999D01*
G01*
X120204000Y-71556999D01*
G75*
G02*
X120453999Y-71307000I249999J0D01*
G01*
G37*
G36*
G01*
X120453999Y-69257000D02*
X121354001Y-69257000D01*
G75*
G02*
X121604000Y-69506999I0J-249999D01*
G01*
X121604000Y-70157001D01*
G75*
G02*
X121354001Y-70407000I-249999J0D01*
G01*
X120453999Y-70407000D01*
G75*
G02*
X120204000Y-70157001I0J249999D01*
G01*
X120204000Y-69506999D01*
G75*
G02*
X120453999Y-69257000I249999J0D01*
G01*
G37*
G36*
G01*
X123247999Y-71307000D02*
X124148001Y-71307000D01*
G75*
G02*
X124398000Y-71556999I0J-249999D01*
G01*
X124398000Y-72207001D01*
G75*
G02*
X124148001Y-72457000I-249999J0D01*
G01*
X123247999Y-72457000D01*
G75*
G02*
X122998000Y-72207001I0J249999D01*
G01*
X122998000Y-71556999D01*
G75*
G02*
X123247999Y-71307000I249999J0D01*
G01*
G37*
G36*
G01*
X123247999Y-69257000D02*
X124148001Y-69257000D01*
G75*
G02*
X124398000Y-69506999I0J-249999D01*
G01*
X124398000Y-70157001D01*
G75*
G02*
X124148001Y-70407000I-249999J0D01*
G01*
X123247999Y-70407000D01*
G75*
G02*
X122998000Y-70157001I0J249999D01*
G01*
X122998000Y-69506999D01*
G75*
G02*
X123247999Y-69257000I249999J0D01*
G01*
G37*
G36*
G01*
X117659999Y-71307000D02*
X118560001Y-71307000D01*
G75*
G02*
X118810000Y-71556999I0J-249999D01*
G01*
X118810000Y-72207001D01*
G75*
G02*
X118560001Y-72457000I-249999J0D01*
G01*
X117659999Y-72457000D01*
G75*
G02*
X117410000Y-72207001I0J249999D01*
G01*
X117410000Y-71556999D01*
G75*
G02*
X117659999Y-71307000I249999J0D01*
G01*
G37*
G36*
G01*
X117659999Y-69257000D02*
X118560001Y-69257000D01*
G75*
G02*
X118810000Y-69506999I0J-249999D01*
G01*
X118810000Y-70157001D01*
G75*
G02*
X118560001Y-70407000I-249999J0D01*
G01*
X117659999Y-70407000D01*
G75*
G02*
X117410000Y-70157001I0J249999D01*
G01*
X117410000Y-69506999D01*
G75*
G02*
X117659999Y-69257000I249999J0D01*
G01*
G37*
G36*
G01*
X128835999Y-71316000D02*
X129736001Y-71316000D01*
G75*
G02*
X129986000Y-71565999I0J-249999D01*
G01*
X129986000Y-72216001D01*
G75*
G02*
X129736001Y-72466000I-249999J0D01*
G01*
X128835999Y-72466000D01*
G75*
G02*
X128586000Y-72216001I0J249999D01*
G01*
X128586000Y-71565999D01*
G75*
G02*
X128835999Y-71316000I249999J0D01*
G01*
G37*
G36*
G01*
X128835999Y-69266000D02*
X129736001Y-69266000D01*
G75*
G02*
X129986000Y-69515999I0J-249999D01*
G01*
X129986000Y-70166001D01*
G75*
G02*
X129736001Y-70416000I-249999J0D01*
G01*
X128835999Y-70416000D01*
G75*
G02*
X128586000Y-70166001I0J249999D01*
G01*
X128586000Y-69515999D01*
G75*
G02*
X128835999Y-69266000I249999J0D01*
G01*
G37*
G36*
G01*
X115766001Y-70416000D02*
X114865999Y-70416000D01*
G75*
G02*
X114616000Y-70166001I0J249999D01*
G01*
X114616000Y-69515999D01*
G75*
G02*
X114865999Y-69266000I249999J0D01*
G01*
X115766001Y-69266000D01*
G75*
G02*
X116016000Y-69515999I0J-249999D01*
G01*
X116016000Y-70166001D01*
G75*
G02*
X115766001Y-70416000I-249999J0D01*
G01*
G37*
G36*
G01*
X115766001Y-72466000D02*
X114865999Y-72466000D01*
G75*
G02*
X114616000Y-72216001I0J249999D01*
G01*
X114616000Y-71565999D01*
G75*
G02*
X114865999Y-71316000I249999J0D01*
G01*
X115766001Y-71316000D01*
G75*
G02*
X116016000Y-71565999I0J-249999D01*
G01*
X116016000Y-72216001D01*
G75*
G02*
X115766001Y-72466000I-249999J0D01*
G01*
G37*
G36*
G01*
X120592001Y-136955000D02*
X119691999Y-136955000D01*
G75*
G02*
X119442000Y-136705001I0J249999D01*
G01*
X119442000Y-136054999D01*
G75*
G02*
X119691999Y-135805000I249999J0D01*
G01*
X120592001Y-135805000D01*
G75*
G02*
X120842000Y-136054999I0J-249999D01*
G01*
X120842000Y-136705001D01*
G75*
G02*
X120592001Y-136955000I-249999J0D01*
G01*
G37*
G36*
G01*
X120592001Y-139005000D02*
X119691999Y-139005000D01*
G75*
G02*
X119442000Y-138755001I0J249999D01*
G01*
X119442000Y-138104999D01*
G75*
G02*
X119691999Y-137855000I249999J0D01*
G01*
X120592001Y-137855000D01*
G75*
G02*
X120842000Y-138104999I0J-249999D01*
G01*
X120842000Y-138755001D01*
G75*
G02*
X120592001Y-139005000I-249999J0D01*
G01*
G37*
G36*
G01*
X134562001Y-136955000D02*
X133661999Y-136955000D01*
G75*
G02*
X133412000Y-136705001I0J249999D01*
G01*
X133412000Y-136054999D01*
G75*
G02*
X133661999Y-135805000I249999J0D01*
G01*
X134562001Y-135805000D01*
G75*
G02*
X134812000Y-136054999I0J-249999D01*
G01*
X134812000Y-136705001D01*
G75*
G02*
X134562001Y-136955000I-249999J0D01*
G01*
G37*
G36*
G01*
X134562001Y-139005000D02*
X133661999Y-139005000D01*
G75*
G02*
X133412000Y-138755001I0J249999D01*
G01*
X133412000Y-138104999D01*
G75*
G02*
X133661999Y-137855000I249999J0D01*
G01*
X134562001Y-137855000D01*
G75*
G02*
X134812000Y-138104999I0J-249999D01*
G01*
X134812000Y-138755001D01*
G75*
G02*
X134562001Y-139005000I-249999J0D01*
G01*
G37*
G36*
G01*
X148532001Y-136955000D02*
X147631999Y-136955000D01*
G75*
G02*
X147382000Y-136705001I0J249999D01*
G01*
X147382000Y-136054999D01*
G75*
G02*
X147631999Y-135805000I249999J0D01*
G01*
X148532001Y-135805000D01*
G75*
G02*
X148782000Y-136054999I0J-249999D01*
G01*
X148782000Y-136705001D01*
G75*
G02*
X148532001Y-136955000I-249999J0D01*
G01*
G37*
G36*
G01*
X148532001Y-139005000D02*
X147631999Y-139005000D01*
G75*
G02*
X147382000Y-138755001I0J249999D01*
G01*
X147382000Y-138104999D01*
G75*
G02*
X147631999Y-137855000I249999J0D01*
G01*
X148532001Y-137855000D01*
G75*
G02*
X148782000Y-138104999I0J-249999D01*
G01*
X148782000Y-138755001D01*
G75*
G02*
X148532001Y-139005000I-249999J0D01*
G01*
G37*
D11*
X152146000Y-49530000D03*
X152146000Y-52830000D03*
D12*
X146686000Y-124714000D03*
X149986000Y-124714000D03*
X134746000Y-121666000D03*
X131446000Y-121666000D03*
X134746000Y-118110000D03*
X131446000Y-118110000D03*
D11*
X121412000Y-98934000D03*
X121412000Y-102234000D03*
X123952000Y-102234000D03*
X123952000Y-98934000D03*
G36*
G01*
X139134000Y-115004001D02*
X139134000Y-114103999D01*
G75*
G02*
X139383999Y-113854000I249999J0D01*
G01*
X140034001Y-113854000D01*
G75*
G02*
X140284000Y-114103999I0J-249999D01*
G01*
X140284000Y-115004001D01*
G75*
G02*
X140034001Y-115254000I-249999J0D01*
G01*
X139383999Y-115254000D01*
G75*
G02*
X139134000Y-115004001I0J249999D01*
G01*
G37*
G36*
G01*
X137084000Y-115004001D02*
X137084000Y-114103999D01*
G75*
G02*
X137333999Y-113854000I249999J0D01*
G01*
X137984001Y-113854000D01*
G75*
G02*
X138234000Y-114103999I0J-249999D01*
G01*
X138234000Y-115004001D01*
G75*
G02*
X137984001Y-115254000I-249999J0D01*
G01*
X137333999Y-115254000D01*
G75*
G02*
X137084000Y-115004001I0J249999D01*
G01*
G37*
G36*
G01*
X143198000Y-115004001D02*
X143198000Y-114103999D01*
G75*
G02*
X143447999Y-113854000I249999J0D01*
G01*
X144098001Y-113854000D01*
G75*
G02*
X144348000Y-114103999I0J-249999D01*
G01*
X144348000Y-115004001D01*
G75*
G02*
X144098001Y-115254000I-249999J0D01*
G01*
X143447999Y-115254000D01*
G75*
G02*
X143198000Y-115004001I0J249999D01*
G01*
G37*
G36*
G01*
X141148000Y-115004001D02*
X141148000Y-114103999D01*
G75*
G02*
X141397999Y-113854000I249999J0D01*
G01*
X142048001Y-113854000D01*
G75*
G02*
X142298000Y-114103999I0J-249999D01*
G01*
X142298000Y-115004001D01*
G75*
G02*
X142048001Y-115254000I-249999J0D01*
G01*
X141397999Y-115254000D01*
G75*
G02*
X141148000Y-115004001I0J249999D01*
G01*
G37*
G36*
G01*
X152587000Y-74618001D02*
X152587000Y-73717999D01*
G75*
G02*
X152836999Y-73468000I249999J0D01*
G01*
X153487001Y-73468000D01*
G75*
G02*
X153737000Y-73717999I0J-249999D01*
G01*
X153737000Y-74618001D01*
G75*
G02*
X153487001Y-74868000I-249999J0D01*
G01*
X152836999Y-74868000D01*
G75*
G02*
X152587000Y-74618001I0J249999D01*
G01*
G37*
G36*
G01*
X150537000Y-74618001D02*
X150537000Y-73717999D01*
G75*
G02*
X150786999Y-73468000I249999J0D01*
G01*
X151437001Y-73468000D01*
G75*
G02*
X151687000Y-73717999I0J-249999D01*
G01*
X151687000Y-74618001D01*
G75*
G02*
X151437001Y-74868000I-249999J0D01*
G01*
X150786999Y-74868000D01*
G75*
G02*
X150537000Y-74618001I0J249999D01*
G01*
G37*
G36*
G01*
X105975999Y-76641000D02*
X106876001Y-76641000D01*
G75*
G02*
X107126000Y-76890999I0J-249999D01*
G01*
X107126000Y-77541001D01*
G75*
G02*
X106876001Y-77791000I-249999J0D01*
G01*
X105975999Y-77791000D01*
G75*
G02*
X105726000Y-77541001I0J249999D01*
G01*
X105726000Y-76890999D01*
G75*
G02*
X105975999Y-76641000I249999J0D01*
G01*
G37*
G36*
G01*
X105975999Y-74591000D02*
X106876001Y-74591000D01*
G75*
G02*
X107126000Y-74840999I0J-249999D01*
G01*
X107126000Y-75491001D01*
G75*
G02*
X106876001Y-75741000I-249999J0D01*
G01*
X105975999Y-75741000D01*
G75*
G02*
X105726000Y-75491001I0J249999D01*
G01*
X105726000Y-74840999D01*
G75*
G02*
X105975999Y-74591000I249999J0D01*
G01*
G37*
G36*
G01*
X105975999Y-80723000D02*
X106876001Y-80723000D01*
G75*
G02*
X107126000Y-80972999I0J-249999D01*
G01*
X107126000Y-81623001D01*
G75*
G02*
X106876001Y-81873000I-249999J0D01*
G01*
X105975999Y-81873000D01*
G75*
G02*
X105726000Y-81623001I0J249999D01*
G01*
X105726000Y-80972999D01*
G75*
G02*
X105975999Y-80723000I249999J0D01*
G01*
G37*
G36*
G01*
X105975999Y-78673000D02*
X106876001Y-78673000D01*
G75*
G02*
X107126000Y-78922999I0J-249999D01*
G01*
X107126000Y-79573001D01*
G75*
G02*
X106876001Y-79823000I-249999J0D01*
G01*
X105975999Y-79823000D01*
G75*
G02*
X105726000Y-79573001I0J249999D01*
G01*
X105726000Y-78922999D01*
G75*
G02*
X105975999Y-78673000I249999J0D01*
G01*
G37*
G36*
G01*
X116389999Y-76641000D02*
X117290001Y-76641000D01*
G75*
G02*
X117540000Y-76890999I0J-249999D01*
G01*
X117540000Y-77541001D01*
G75*
G02*
X117290001Y-77791000I-249999J0D01*
G01*
X116389999Y-77791000D01*
G75*
G02*
X116140000Y-77541001I0J249999D01*
G01*
X116140000Y-76890999D01*
G75*
G02*
X116389999Y-76641000I249999J0D01*
G01*
G37*
G36*
G01*
X116389999Y-74591000D02*
X117290001Y-74591000D01*
G75*
G02*
X117540000Y-74840999I0J-249999D01*
G01*
X117540000Y-75491001D01*
G75*
G02*
X117290001Y-75741000I-249999J0D01*
G01*
X116389999Y-75741000D01*
G75*
G02*
X116140000Y-75491001I0J249999D01*
G01*
X116140000Y-74840999D01*
G75*
G02*
X116389999Y-74591000I249999J0D01*
G01*
G37*
G36*
G01*
X116389999Y-80723000D02*
X117290001Y-80723000D01*
G75*
G02*
X117540000Y-80972999I0J-249999D01*
G01*
X117540000Y-81623001D01*
G75*
G02*
X117290001Y-81873000I-249999J0D01*
G01*
X116389999Y-81873000D01*
G75*
G02*
X116140000Y-81623001I0J249999D01*
G01*
X116140000Y-80972999D01*
G75*
G02*
X116389999Y-80723000I249999J0D01*
G01*
G37*
G36*
G01*
X116389999Y-78673000D02*
X117290001Y-78673000D01*
G75*
G02*
X117540000Y-78922999I0J-249999D01*
G01*
X117540000Y-79573001D01*
G75*
G02*
X117290001Y-79823000I-249999J0D01*
G01*
X116389999Y-79823000D01*
G75*
G02*
X116140000Y-79573001I0J249999D01*
G01*
X116140000Y-78922999D01*
G75*
G02*
X116389999Y-78673000I249999J0D01*
G01*
G37*
G36*
G01*
X128073999Y-76650000D02*
X128974001Y-76650000D01*
G75*
G02*
X129224000Y-76899999I0J-249999D01*
G01*
X129224000Y-77550001D01*
G75*
G02*
X128974001Y-77800000I-249999J0D01*
G01*
X128073999Y-77800000D01*
G75*
G02*
X127824000Y-77550001I0J249999D01*
G01*
X127824000Y-76899999D01*
G75*
G02*
X128073999Y-76650000I249999J0D01*
G01*
G37*
G36*
G01*
X128073999Y-74600000D02*
X128974001Y-74600000D01*
G75*
G02*
X129224000Y-74849999I0J-249999D01*
G01*
X129224000Y-75500001D01*
G75*
G02*
X128974001Y-75750000I-249999J0D01*
G01*
X128073999Y-75750000D01*
G75*
G02*
X127824000Y-75500001I0J249999D01*
G01*
X127824000Y-74849999D01*
G75*
G02*
X128073999Y-74600000I249999J0D01*
G01*
G37*
G36*
G01*
X128073999Y-80723000D02*
X128974001Y-80723000D01*
G75*
G02*
X129224000Y-80972999I0J-249999D01*
G01*
X129224000Y-81623001D01*
G75*
G02*
X128974001Y-81873000I-249999J0D01*
G01*
X128073999Y-81873000D01*
G75*
G02*
X127824000Y-81623001I0J249999D01*
G01*
X127824000Y-80972999D01*
G75*
G02*
X128073999Y-80723000I249999J0D01*
G01*
G37*
G36*
G01*
X128073999Y-78673000D02*
X128974001Y-78673000D01*
G75*
G02*
X129224000Y-78922999I0J-249999D01*
G01*
X129224000Y-79573001D01*
G75*
G02*
X128974001Y-79823000I-249999J0D01*
G01*
X128073999Y-79823000D01*
G75*
G02*
X127824000Y-79573001I0J249999D01*
G01*
X127824000Y-78922999D01*
G75*
G02*
X128073999Y-78673000I249999J0D01*
G01*
G37*
G36*
G01*
X151687000Y-68891999D02*
X151687000Y-69792001D01*
G75*
G02*
X151437001Y-70042000I-249999J0D01*
G01*
X150786999Y-70042000D01*
G75*
G02*
X150537000Y-69792001I0J249999D01*
G01*
X150537000Y-68891999D01*
G75*
G02*
X150786999Y-68642000I249999J0D01*
G01*
X151437001Y-68642000D01*
G75*
G02*
X151687000Y-68891999I0J-249999D01*
G01*
G37*
G36*
G01*
X153737000Y-68891999D02*
X153737000Y-69792001D01*
G75*
G02*
X153487001Y-70042000I-249999J0D01*
G01*
X152836999Y-70042000D01*
G75*
G02*
X152587000Y-69792001I0J249999D01*
G01*
X152587000Y-68891999D01*
G75*
G02*
X152836999Y-68642000I249999J0D01*
G01*
X153487001Y-68642000D01*
G75*
G02*
X153737000Y-68891999I0J-249999D01*
G01*
G37*
G36*
G01*
X143797000Y-52282000D02*
X143797000Y-53382000D01*
G75*
G02*
X143547000Y-53632000I-250000J0D01*
G01*
X140547000Y-53632000D01*
G75*
G02*
X140297000Y-53382000I0J250000D01*
G01*
X140297000Y-52282000D01*
G75*
G02*
X140547000Y-52032000I250000J0D01*
G01*
X143547000Y-52032000D01*
G75*
G02*
X143797000Y-52282000I0J-250000D01*
G01*
G37*
G36*
G01*
X149197000Y-52282000D02*
X149197000Y-53382000D01*
G75*
G02*
X148947000Y-53632000I-250000J0D01*
G01*
X145947000Y-53632000D01*
G75*
G02*
X145697000Y-53382000I0J250000D01*
G01*
X145697000Y-52282000D01*
G75*
G02*
X145947000Y-52032000I250000J0D01*
G01*
X148947000Y-52032000D01*
G75*
G02*
X149197000Y-52282000I0J-250000D01*
G01*
G37*
G36*
G01*
X119860000Y-52282000D02*
X119860000Y-53382000D01*
G75*
G02*
X119610000Y-53632000I-250000J0D01*
G01*
X116610000Y-53632000D01*
G75*
G02*
X116360000Y-53382000I0J250000D01*
G01*
X116360000Y-52282000D01*
G75*
G02*
X116610000Y-52032000I250000J0D01*
G01*
X119610000Y-52032000D01*
G75*
G02*
X119860000Y-52282000I0J-250000D01*
G01*
G37*
G36*
G01*
X125260000Y-52282000D02*
X125260000Y-53382000D01*
G75*
G02*
X125010000Y-53632000I-250000J0D01*
G01*
X122010000Y-53632000D01*
G75*
G02*
X121760000Y-53382000I0J250000D01*
G01*
X121760000Y-52282000D01*
G75*
G02*
X122010000Y-52032000I250000J0D01*
G01*
X125010000Y-52032000D01*
G75*
G02*
X125260000Y-52282000I0J-250000D01*
G01*
G37*
G36*
G01*
X147387000Y-121215999D02*
X147387000Y-122116001D01*
G75*
G02*
X147137001Y-122366000I-249999J0D01*
G01*
X146486999Y-122366000D01*
G75*
G02*
X146237000Y-122116001I0J249999D01*
G01*
X146237000Y-121215999D01*
G75*
G02*
X146486999Y-120966000I249999J0D01*
G01*
X147137001Y-120966000D01*
G75*
G02*
X147387000Y-121215999I0J-249999D01*
G01*
G37*
G36*
G01*
X149437000Y-121215999D02*
X149437000Y-122116001D01*
G75*
G02*
X149187001Y-122366000I-249999J0D01*
G01*
X148536999Y-122366000D01*
G75*
G02*
X148287000Y-122116001I0J249999D01*
G01*
X148287000Y-121215999D01*
G75*
G02*
X148536999Y-120966000I249999J0D01*
G01*
X149187001Y-120966000D01*
G75*
G02*
X149437000Y-121215999I0J-249999D01*
G01*
G37*
G36*
G01*
X149294000Y-63696001D02*
X149294000Y-62795999D01*
G75*
G02*
X149543999Y-62546000I249999J0D01*
G01*
X150194001Y-62546000D01*
G75*
G02*
X150444000Y-62795999I0J-249999D01*
G01*
X150444000Y-63696001D01*
G75*
G02*
X150194001Y-63946000I-249999J0D01*
G01*
X149543999Y-63946000D01*
G75*
G02*
X149294000Y-63696001I0J249999D01*
G01*
G37*
G36*
G01*
X147244000Y-63696001D02*
X147244000Y-62795999D01*
G75*
G02*
X147493999Y-62546000I249999J0D01*
G01*
X148144001Y-62546000D01*
G75*
G02*
X148394000Y-62795999I0J-249999D01*
G01*
X148394000Y-63696001D01*
G75*
G02*
X148144001Y-63946000I-249999J0D01*
G01*
X147493999Y-63946000D01*
G75*
G02*
X147244000Y-63696001I0J249999D01*
G01*
G37*
G36*
G01*
X134054000Y-125164001D02*
X134054000Y-124263999D01*
G75*
G02*
X134303999Y-124014000I249999J0D01*
G01*
X134954001Y-124014000D01*
G75*
G02*
X135204000Y-124263999I0J-249999D01*
G01*
X135204000Y-125164001D01*
G75*
G02*
X134954001Y-125414000I-249999J0D01*
G01*
X134303999Y-125414000D01*
G75*
G02*
X134054000Y-125164001I0J249999D01*
G01*
G37*
G36*
G01*
X132004000Y-125164001D02*
X132004000Y-124263999D01*
G75*
G02*
X132253999Y-124014000I249999J0D01*
G01*
X132904001Y-124014000D01*
G75*
G02*
X133154000Y-124263999I0J-249999D01*
G01*
X133154000Y-125164001D01*
G75*
G02*
X132904001Y-125414000I-249999J0D01*
G01*
X132253999Y-125414000D01*
G75*
G02*
X132004000Y-125164001I0J249999D01*
G01*
G37*
G36*
G01*
X114857000Y-63049999D02*
X114857000Y-63950001D01*
G75*
G02*
X114607001Y-64200000I-249999J0D01*
G01*
X113956999Y-64200000D01*
G75*
G02*
X113707000Y-63950001I0J249999D01*
G01*
X113707000Y-63049999D01*
G75*
G02*
X113956999Y-62800000I249999J0D01*
G01*
X114607001Y-62800000D01*
G75*
G02*
X114857000Y-63049999I0J-249999D01*
G01*
G37*
G36*
G01*
X116907000Y-63049999D02*
X116907000Y-63950001D01*
G75*
G02*
X116657001Y-64200000I-249999J0D01*
G01*
X116006999Y-64200000D01*
G75*
G02*
X115757000Y-63950001I0J249999D01*
G01*
X115757000Y-63049999D01*
G75*
G02*
X116006999Y-62800000I249999J0D01*
G01*
X116657001Y-62800000D01*
G75*
G02*
X116907000Y-63049999I0J-249999D01*
G01*
G37*
G36*
G01*
X145599999Y-71307000D02*
X146500001Y-71307000D01*
G75*
G02*
X146750000Y-71556999I0J-249999D01*
G01*
X146750000Y-72207001D01*
G75*
G02*
X146500001Y-72457000I-249999J0D01*
G01*
X145599999Y-72457000D01*
G75*
G02*
X145350000Y-72207001I0J249999D01*
G01*
X145350000Y-71556999D01*
G75*
G02*
X145599999Y-71307000I249999J0D01*
G01*
G37*
G36*
G01*
X145599999Y-69257000D02*
X146500001Y-69257000D01*
G75*
G02*
X146750000Y-69506999I0J-249999D01*
G01*
X146750000Y-70157001D01*
G75*
G02*
X146500001Y-70407000I-249999J0D01*
G01*
X145599999Y-70407000D01*
G75*
G02*
X145350000Y-70157001I0J249999D01*
G01*
X145350000Y-69506999D01*
G75*
G02*
X145599999Y-69257000I249999J0D01*
G01*
G37*
G36*
G01*
X136340001Y-84903000D02*
X135439999Y-84903000D01*
G75*
G02*
X135190000Y-84653001I0J249999D01*
G01*
X135190000Y-84002999D01*
G75*
G02*
X135439999Y-83753000I249999J0D01*
G01*
X136340001Y-83753000D01*
G75*
G02*
X136590000Y-84002999I0J-249999D01*
G01*
X136590000Y-84653001D01*
G75*
G02*
X136340001Y-84903000I-249999J0D01*
G01*
G37*
G36*
G01*
X136340001Y-86953000D02*
X135439999Y-86953000D01*
G75*
G02*
X135190000Y-86703001I0J249999D01*
G01*
X135190000Y-86052999D01*
G75*
G02*
X135439999Y-85803000I249999J0D01*
G01*
X136340001Y-85803000D01*
G75*
G02*
X136590000Y-86052999I0J-249999D01*
G01*
X136590000Y-86703001D01*
G75*
G02*
X136340001Y-86953000I-249999J0D01*
G01*
G37*
G36*
G01*
X131629999Y-71307000D02*
X132530001Y-71307000D01*
G75*
G02*
X132780000Y-71556999I0J-249999D01*
G01*
X132780000Y-72207001D01*
G75*
G02*
X132530001Y-72457000I-249999J0D01*
G01*
X131629999Y-72457000D01*
G75*
G02*
X131380000Y-72207001I0J249999D01*
G01*
X131380000Y-71556999D01*
G75*
G02*
X131629999Y-71307000I249999J0D01*
G01*
G37*
G36*
G01*
X131629999Y-69257000D02*
X132530001Y-69257000D01*
G75*
G02*
X132780000Y-69506999I0J-249999D01*
G01*
X132780000Y-70157001D01*
G75*
G02*
X132530001Y-70407000I-249999J0D01*
G01*
X131629999Y-70407000D01*
G75*
G02*
X131380000Y-70157001I0J249999D01*
G01*
X131380000Y-69506999D01*
G75*
G02*
X131629999Y-69257000I249999J0D01*
G01*
G37*
G36*
G01*
X108769999Y-71307000D02*
X109670001Y-71307000D01*
G75*
G02*
X109920000Y-71556999I0J-249999D01*
G01*
X109920000Y-72207001D01*
G75*
G02*
X109670001Y-72457000I-249999J0D01*
G01*
X108769999Y-72457000D01*
G75*
G02*
X108520000Y-72207001I0J249999D01*
G01*
X108520000Y-71556999D01*
G75*
G02*
X108769999Y-71307000I249999J0D01*
G01*
G37*
G36*
G01*
X108769999Y-69257000D02*
X109670001Y-69257000D01*
G75*
G02*
X109920000Y-69506999I0J-249999D01*
G01*
X109920000Y-70157001D01*
G75*
G02*
X109670001Y-70407000I-249999J0D01*
G01*
X108769999Y-70407000D01*
G75*
G02*
X108520000Y-70157001I0J249999D01*
G01*
X108520000Y-69506999D01*
G75*
G02*
X108769999Y-69257000I249999J0D01*
G01*
G37*
G36*
G01*
X126041999Y-71307000D02*
X126942001Y-71307000D01*
G75*
G02*
X127192000Y-71556999I0J-249999D01*
G01*
X127192000Y-72207001D01*
G75*
G02*
X126942001Y-72457000I-249999J0D01*
G01*
X126041999Y-72457000D01*
G75*
G02*
X125792000Y-72207001I0J249999D01*
G01*
X125792000Y-71556999D01*
G75*
G02*
X126041999Y-71307000I249999J0D01*
G01*
G37*
G36*
G01*
X126041999Y-69257000D02*
X126942001Y-69257000D01*
G75*
G02*
X127192000Y-69506999I0J-249999D01*
G01*
X127192000Y-70157001D01*
G75*
G02*
X126942001Y-70407000I-249999J0D01*
G01*
X126041999Y-70407000D01*
G75*
G02*
X125792000Y-70157001I0J249999D01*
G01*
X125792000Y-69506999D01*
G75*
G02*
X126041999Y-69257000I249999J0D01*
G01*
G37*
M02*
