G04 #@! TF.GenerationSoftware,KiCad,Pcbnew,5.1.6-c6e7f7d~87~ubuntu18.04.1*
G04 #@! TF.CreationDate,2020-08-03T08:46:45-04:00*
G04 #@! TF.ProjectId,2164SVF,32313634-5356-4462-9e6b-696361645f70,1*
G04 #@! TF.SameCoordinates,Original*
G04 #@! TF.FileFunction,Legend,Top*
G04 #@! TF.FilePolarity,Positive*
%FSLAX46Y46*%
G04 Gerber Fmt 4.6, Leading zero omitted, Abs format (unit mm)*
G04 Created by KiCad (PCBNEW 5.1.6-c6e7f7d~87~ubuntu18.04.1) date 2020-08-03 08:46:45*
%MOMM*%
%LPD*%
G01*
G04 APERTURE LIST*
%ADD10C,0.120000*%
%ADD11C,0.150000*%
G04 APERTURE END LIST*
D10*
X120015000Y-90170000D02*
X120015000Y-102870000D01*
X108585000Y-90170000D02*
X120015000Y-90170000D01*
X108585000Y-102870000D02*
X108585000Y-90170000D01*
X120015000Y-102870000D02*
X108585000Y-102870000D01*
X151480000Y-103260000D02*
X150650000Y-103260000D01*
X149030000Y-103260000D02*
X148500000Y-103260000D01*
X146130000Y-103260000D02*
X144950000Y-103260000D01*
X154690000Y-103260000D02*
X154690000Y-98540000D01*
X144950000Y-94730000D02*
X144950000Y-91670000D01*
X144940000Y-103260000D02*
X144940000Y-98540000D01*
X154690000Y-94730000D02*
X154690000Y-91670000D01*
X154690000Y-103260000D02*
X153200000Y-103260000D01*
X154690000Y-91670000D02*
X144950000Y-91670000D01*
X151480000Y-65160000D02*
X150650000Y-65160000D01*
X149030000Y-65160000D02*
X148500000Y-65160000D01*
X146130000Y-65160000D02*
X144950000Y-65160000D01*
X154690000Y-65160000D02*
X154690000Y-60440000D01*
X144950000Y-56630000D02*
X144950000Y-53570000D01*
X144940000Y-65160000D02*
X144940000Y-60440000D01*
X154690000Y-56630000D02*
X154690000Y-53570000D01*
X154690000Y-65160000D02*
X153200000Y-65160000D01*
X154690000Y-53570000D02*
X144950000Y-53570000D01*
X115920000Y-65160000D02*
X115090000Y-65160000D01*
X113470000Y-65160000D02*
X112940000Y-65160000D01*
X110570000Y-65160000D02*
X109390000Y-65160000D01*
X119130000Y-65160000D02*
X119130000Y-60440000D01*
X109390000Y-56630000D02*
X109390000Y-53570000D01*
X109380000Y-65160000D02*
X109380000Y-60440000D01*
X119130000Y-56630000D02*
X119130000Y-53570000D01*
X119130000Y-65160000D02*
X117640000Y-65160000D01*
X119130000Y-53570000D02*
X109390000Y-53570000D01*
X133700000Y-103260000D02*
X132870000Y-103260000D01*
X131250000Y-103260000D02*
X130720000Y-103260000D01*
X128350000Y-103260000D02*
X127170000Y-103260000D01*
X136910000Y-103260000D02*
X136910000Y-98540000D01*
X127170000Y-94730000D02*
X127170000Y-91670000D01*
X127160000Y-103260000D02*
X127160000Y-98540000D01*
X136910000Y-94730000D02*
X136910000Y-91670000D01*
X136910000Y-103260000D02*
X135420000Y-103260000D01*
X136910000Y-91670000D02*
X127170000Y-91670000D01*
D11*
X118895000Y-145470000D02*
X118895000Y-136470000D01*
X129795000Y-145470000D02*
X129795000Y-136470000D01*
X118895000Y-145470000D02*
X129795000Y-145470000D01*
X118895000Y-136470000D02*
X129795000Y-136470000D01*
X126895000Y-140970000D02*
G75*
G03*
X126895000Y-140970000I-1800000J0D01*
G01*
X123295000Y-140970000D02*
X126895000Y-140970000D01*
X125095000Y-142770000D02*
X125095000Y-139170000D01*
X132865000Y-145470000D02*
X132865000Y-136470000D01*
X143765000Y-145470000D02*
X143765000Y-136470000D01*
X132865000Y-145470000D02*
X143765000Y-145470000D01*
X132865000Y-136470000D02*
X143765000Y-136470000D01*
X140865000Y-140970000D02*
G75*
G03*
X140865000Y-140970000I-1800000J0D01*
G01*
X137265000Y-140970000D02*
X140865000Y-140970000D01*
X139065000Y-142770000D02*
X139065000Y-139170000D01*
X146835000Y-145470000D02*
X146835000Y-136470000D01*
X157735000Y-145470000D02*
X157735000Y-136470000D01*
X146835000Y-145470000D02*
X157735000Y-145470000D01*
X146835000Y-136470000D02*
X157735000Y-136470000D01*
X154835000Y-140970000D02*
G75*
G03*
X154835000Y-140970000I-1800000J0D01*
G01*
X151235000Y-140970000D02*
X154835000Y-140970000D01*
X153035000Y-142770000D02*
X153035000Y-139170000D01*
X146835000Y-131500000D02*
X146835000Y-122500000D01*
X157735000Y-131500000D02*
X157735000Y-122500000D01*
X146835000Y-131500000D02*
X157735000Y-131500000D01*
X146835000Y-122500000D02*
X157735000Y-122500000D01*
X154835000Y-127000000D02*
G75*
G03*
X154835000Y-127000000I-1800000J0D01*
G01*
X151235000Y-127000000D02*
X154835000Y-127000000D01*
X153035000Y-128800000D02*
X153035000Y-125200000D01*
X132865000Y-131500000D02*
X132865000Y-122500000D01*
X143765000Y-131500000D02*
X143765000Y-122500000D01*
X132865000Y-131500000D02*
X143765000Y-131500000D01*
X132865000Y-122500000D02*
X143765000Y-122500000D01*
X140865000Y-127000000D02*
G75*
G03*
X140865000Y-127000000I-1800000J0D01*
G01*
X137265000Y-127000000D02*
X140865000Y-127000000D01*
X139065000Y-128800000D02*
X139065000Y-125200000D01*
X118895000Y-131500000D02*
X118895000Y-122500000D01*
X129795000Y-131500000D02*
X129795000Y-122500000D01*
X118895000Y-131500000D02*
X129795000Y-131500000D01*
X118895000Y-122500000D02*
X129795000Y-122500000D01*
X126895000Y-127000000D02*
G75*
G03*
X126895000Y-127000000I-1800000J0D01*
G01*
X123295000Y-127000000D02*
X126895000Y-127000000D01*
X125095000Y-128800000D02*
X125095000Y-125200000D01*
X104925000Y-131500000D02*
X104925000Y-122500000D01*
X115825000Y-131500000D02*
X115825000Y-122500000D01*
X104925000Y-131500000D02*
X115825000Y-131500000D01*
X104925000Y-122500000D02*
X115825000Y-122500000D01*
X112925000Y-127000000D02*
G75*
G03*
X112925000Y-127000000I-1800000J0D01*
G01*
X109325000Y-127000000D02*
X112925000Y-127000000D01*
X111125000Y-128800000D02*
X111125000Y-125200000D01*
X112966666Y-89939761D02*
X113109523Y-89987380D01*
X113347619Y-89987380D01*
X113442857Y-89939761D01*
X113490476Y-89892142D01*
X113538095Y-89796904D01*
X113538095Y-89701666D01*
X113490476Y-89606428D01*
X113442857Y-89558809D01*
X113347619Y-89511190D01*
X113157142Y-89463571D01*
X113061904Y-89415952D01*
X113014285Y-89368333D01*
X112966666Y-89273095D01*
X112966666Y-89177857D01*
X113014285Y-89082619D01*
X113061904Y-89035000D01*
X113157142Y-88987380D01*
X113395238Y-88987380D01*
X113538095Y-89035000D01*
X113871428Y-88987380D02*
X114109523Y-89987380D01*
X114300000Y-89273095D01*
X114490476Y-89987380D01*
X114728571Y-88987380D01*
X115633333Y-89987380D02*
X115061904Y-89987380D01*
X115347619Y-89987380D02*
X115347619Y-88987380D01*
X115252380Y-89130238D01*
X115157142Y-89225476D01*
X115061904Y-89273095D01*
X149264761Y-91384380D02*
X148931428Y-90908190D01*
X148693333Y-91384380D02*
X148693333Y-90384380D01*
X149074285Y-90384380D01*
X149169523Y-90432000D01*
X149217142Y-90479619D01*
X149264761Y-90574857D01*
X149264761Y-90717714D01*
X149217142Y-90812952D01*
X149169523Y-90860571D01*
X149074285Y-90908190D01*
X148693333Y-90908190D01*
X149550476Y-90384380D02*
X149883809Y-91384380D01*
X150217142Y-90384380D01*
X151026666Y-90384380D02*
X150550476Y-90384380D01*
X150502857Y-90860571D01*
X150550476Y-90812952D01*
X150645714Y-90765333D01*
X150883809Y-90765333D01*
X150979047Y-90812952D01*
X151026666Y-90860571D01*
X151074285Y-90955809D01*
X151074285Y-91193904D01*
X151026666Y-91289142D01*
X150979047Y-91336761D01*
X150883809Y-91384380D01*
X150645714Y-91384380D01*
X150550476Y-91336761D01*
X150502857Y-91289142D01*
X149264761Y-53157380D02*
X148931428Y-52681190D01*
X148693333Y-53157380D02*
X148693333Y-52157380D01*
X149074285Y-52157380D01*
X149169523Y-52205000D01*
X149217142Y-52252619D01*
X149264761Y-52347857D01*
X149264761Y-52490714D01*
X149217142Y-52585952D01*
X149169523Y-52633571D01*
X149074285Y-52681190D01*
X148693333Y-52681190D01*
X149550476Y-52157380D02*
X149883809Y-53157380D01*
X150217142Y-52157380D01*
X150979047Y-52490714D02*
X150979047Y-53157380D01*
X150740952Y-52109761D02*
X150502857Y-52824047D01*
X151121904Y-52824047D01*
X113704761Y-53157380D02*
X113371428Y-52681190D01*
X113133333Y-53157380D02*
X113133333Y-52157380D01*
X113514285Y-52157380D01*
X113609523Y-52205000D01*
X113657142Y-52252619D01*
X113704761Y-52347857D01*
X113704761Y-52490714D01*
X113657142Y-52585952D01*
X113609523Y-52633571D01*
X113514285Y-52681190D01*
X113133333Y-52681190D01*
X113990476Y-52157380D02*
X114323809Y-53157380D01*
X114657142Y-52157380D01*
X114942857Y-52252619D02*
X114990476Y-52205000D01*
X115085714Y-52157380D01*
X115323809Y-52157380D01*
X115419047Y-52205000D01*
X115466666Y-52252619D01*
X115514285Y-52347857D01*
X115514285Y-52443095D01*
X115466666Y-52585952D01*
X114895238Y-53157380D01*
X115514285Y-53157380D01*
X131484761Y-91257380D02*
X131151428Y-90781190D01*
X130913333Y-91257380D02*
X130913333Y-90257380D01*
X131294285Y-90257380D01*
X131389523Y-90305000D01*
X131437142Y-90352619D01*
X131484761Y-90447857D01*
X131484761Y-90590714D01*
X131437142Y-90685952D01*
X131389523Y-90733571D01*
X131294285Y-90781190D01*
X130913333Y-90781190D01*
X131770476Y-90257380D02*
X132103809Y-91257380D01*
X132437142Y-90257380D01*
X133294285Y-91257380D02*
X132722857Y-91257380D01*
X133008571Y-91257380D02*
X133008571Y-90257380D01*
X132913333Y-90400238D01*
X132818095Y-90495476D01*
X132722857Y-90543095D01*
X130349666Y-136358380D02*
X130349666Y-137072666D01*
X130302047Y-137215523D01*
X130206809Y-137310761D01*
X130063952Y-137358380D01*
X129968714Y-137358380D01*
X130968714Y-136786952D02*
X130873476Y-136739333D01*
X130825857Y-136691714D01*
X130778238Y-136596476D01*
X130778238Y-136548857D01*
X130825857Y-136453619D01*
X130873476Y-136406000D01*
X130968714Y-136358380D01*
X131159190Y-136358380D01*
X131254428Y-136406000D01*
X131302047Y-136453619D01*
X131349666Y-136548857D01*
X131349666Y-136596476D01*
X131302047Y-136691714D01*
X131254428Y-136739333D01*
X131159190Y-136786952D01*
X130968714Y-136786952D01*
X130873476Y-136834571D01*
X130825857Y-136882190D01*
X130778238Y-136977428D01*
X130778238Y-137167904D01*
X130825857Y-137263142D01*
X130873476Y-137310761D01*
X130968714Y-137358380D01*
X131159190Y-137358380D01*
X131254428Y-137310761D01*
X131302047Y-137263142D01*
X131349666Y-137167904D01*
X131349666Y-136977428D01*
X131302047Y-136882190D01*
X131254428Y-136834571D01*
X131159190Y-136786952D01*
X144319666Y-136358380D02*
X144319666Y-137072666D01*
X144272047Y-137215523D01*
X144176809Y-137310761D01*
X144033952Y-137358380D01*
X143938714Y-137358380D01*
X144700619Y-136358380D02*
X145367285Y-136358380D01*
X144938714Y-137358380D01*
X158289666Y-136358380D02*
X158289666Y-137072666D01*
X158242047Y-137215523D01*
X158146809Y-137310761D01*
X158003952Y-137358380D01*
X157908714Y-137358380D01*
X159194428Y-136358380D02*
X159003952Y-136358380D01*
X158908714Y-136406000D01*
X158861095Y-136453619D01*
X158765857Y-136596476D01*
X158718238Y-136786952D01*
X158718238Y-137167904D01*
X158765857Y-137263142D01*
X158813476Y-137310761D01*
X158908714Y-137358380D01*
X159099190Y-137358380D01*
X159194428Y-137310761D01*
X159242047Y-137263142D01*
X159289666Y-137167904D01*
X159289666Y-136929809D01*
X159242047Y-136834571D01*
X159194428Y-136786952D01*
X159099190Y-136739333D01*
X158908714Y-136739333D01*
X158813476Y-136786952D01*
X158765857Y-136834571D01*
X158718238Y-136929809D01*
X158289666Y-122388380D02*
X158289666Y-123102666D01*
X158242047Y-123245523D01*
X158146809Y-123340761D01*
X158003952Y-123388380D01*
X157908714Y-123388380D01*
X159242047Y-122388380D02*
X158765857Y-122388380D01*
X158718238Y-122864571D01*
X158765857Y-122816952D01*
X158861095Y-122769333D01*
X159099190Y-122769333D01*
X159194428Y-122816952D01*
X159242047Y-122864571D01*
X159289666Y-122959809D01*
X159289666Y-123197904D01*
X159242047Y-123293142D01*
X159194428Y-123340761D01*
X159099190Y-123388380D01*
X158861095Y-123388380D01*
X158765857Y-123340761D01*
X158718238Y-123293142D01*
X144319666Y-122388380D02*
X144319666Y-123102666D01*
X144272047Y-123245523D01*
X144176809Y-123340761D01*
X144033952Y-123388380D01*
X143938714Y-123388380D01*
X144700619Y-122388380D02*
X145319666Y-122388380D01*
X144986333Y-122769333D01*
X145129190Y-122769333D01*
X145224428Y-122816952D01*
X145272047Y-122864571D01*
X145319666Y-122959809D01*
X145319666Y-123197904D01*
X145272047Y-123293142D01*
X145224428Y-123340761D01*
X145129190Y-123388380D01*
X144843476Y-123388380D01*
X144748238Y-123340761D01*
X144700619Y-123293142D01*
X130349666Y-122388380D02*
X130349666Y-123102666D01*
X130302047Y-123245523D01*
X130206809Y-123340761D01*
X130063952Y-123388380D01*
X129968714Y-123388380D01*
X130778238Y-122483619D02*
X130825857Y-122436000D01*
X130921095Y-122388380D01*
X131159190Y-122388380D01*
X131254428Y-122436000D01*
X131302047Y-122483619D01*
X131349666Y-122578857D01*
X131349666Y-122674095D01*
X131302047Y-122816952D01*
X130730619Y-123388380D01*
X131349666Y-123388380D01*
X116379666Y-122388380D02*
X116379666Y-123102666D01*
X116332047Y-123245523D01*
X116236809Y-123340761D01*
X116093952Y-123388380D01*
X115998714Y-123388380D01*
X117379666Y-123388380D02*
X116808238Y-123388380D01*
X117093952Y-123388380D02*
X117093952Y-122388380D01*
X116998714Y-122531238D01*
X116903476Y-122626476D01*
X116808238Y-122674095D01*
M02*
