%FSLAX45Y45*%
G04 Gerber Fmt 4.5, Leading zero omitted, Abs format (unit mm)*
G04 Created by KiCad (PCBNEW 5.1.10-88a1d61d58~88~ubuntu20.04.1) date 2021-06-12 13:16:10*
%MOMM*%
%LPD*%
G01*
G04 APERTURE LIST*
%TA.AperFunction,Profile*%
%ADD10C,0.050000*%
%TD*%
%ADD11C,0.200000*%
%ADD12C,0.300000*%
G04 APERTURE END LIST*
D10*
X3385000Y-6440000D02*
G75*
G03*
X3385000Y-6440000I-355000J0D01*
G01*
X4033500Y-10885000D02*
G75*
G03*
X4033500Y-10885000I-305000J0D01*
G01*
X2636500Y-9488000D02*
G75*
G03*
X2636500Y-9488000I-305000J0D01*
G01*
X5430500Y-10885000D02*
G75*
G03*
X5430500Y-10885000I-305000J0D01*
G01*
X2636500Y-10885000D02*
G75*
G03*
X2636500Y-10885000I-305000J0D01*
G01*
X5430500Y-9488000D02*
G75*
G03*
X5430500Y-9488000I-305000J0D01*
G01*
X4033500Y-9488000D02*
G75*
G03*
X4033500Y-9488000I-305000J0D01*
G01*
X1239500Y-9488000D02*
G75*
G03*
X1239500Y-9488000I-305000J0D01*
G01*
X5163000Y-6440000D02*
G75*
G03*
X5163000Y-6440000I-355000J0D01*
G01*
X1557000Y-6440000D02*
G75*
G03*
X1557000Y-6440000I-305000J0D01*
G01*
X5163000Y-2630000D02*
G75*
G03*
X5163000Y-2630000I-355000J0D01*
G01*
X1607000Y-2630000D02*
G75*
G03*
X1607000Y-2630000I-355000J0D01*
G01*
X6060000Y0D02*
X6060000Y-12850000D01*
X0Y-12850000D02*
X6060000Y-12850000D01*
X0Y0D02*
X6060000Y0D01*
X0Y0D02*
X0Y-12850000D01*
D11*
D12*
X283928Y-13318214D02*
X283928Y-13018214D01*
X355357Y-13018214D01*
X398214Y-13032500D01*
X426786Y-13061071D01*
X441071Y-13089643D01*
X455357Y-13146786D01*
X455357Y-13189643D01*
X441071Y-13246786D01*
X426786Y-13275357D01*
X398214Y-13303929D01*
X355357Y-13318214D01*
X283928Y-13318214D01*
X583928Y-13318214D02*
X583928Y-13118214D01*
X583928Y-13175357D02*
X598214Y-13146786D01*
X612500Y-13132500D01*
X641071Y-13118214D01*
X669643Y-13118214D01*
X769643Y-13318214D02*
X769643Y-13118214D01*
X769643Y-13018214D02*
X755357Y-13032500D01*
X769643Y-13046786D01*
X783928Y-13032500D01*
X769643Y-13018214D01*
X769643Y-13046786D01*
X955357Y-13318214D02*
X926786Y-13303929D01*
X912500Y-13275357D01*
X912500Y-13018214D01*
X1112500Y-13318214D02*
X1083928Y-13303929D01*
X1069643Y-13275357D01*
X1069643Y-13018214D01*
X1455357Y-13318214D02*
X1455357Y-13018214D01*
X1555357Y-13232500D01*
X1655357Y-13018214D01*
X1655357Y-13318214D01*
X1926786Y-13318214D02*
X1926786Y-13161071D01*
X1912500Y-13132500D01*
X1883928Y-13118214D01*
X1826786Y-13118214D01*
X1798214Y-13132500D01*
X1926786Y-13303929D02*
X1898214Y-13318214D01*
X1826786Y-13318214D01*
X1798214Y-13303929D01*
X1783928Y-13275357D01*
X1783928Y-13246786D01*
X1798214Y-13218214D01*
X1826786Y-13203929D01*
X1898214Y-13203929D01*
X1926786Y-13189643D01*
X2069643Y-13118214D02*
X2069643Y-13418214D01*
X2069643Y-13132500D02*
X2098214Y-13118214D01*
X2155357Y-13118214D01*
X2183928Y-13132500D01*
X2198214Y-13146786D01*
X2212500Y-13175357D01*
X2212500Y-13261071D01*
X2198214Y-13289643D01*
X2183928Y-13303929D01*
X2155357Y-13318214D01*
X2098214Y-13318214D01*
X2069643Y-13303929D01*
X2341071Y-13289643D02*
X2355357Y-13303929D01*
X2341071Y-13318214D01*
X2326786Y-13303929D01*
X2341071Y-13289643D01*
X2341071Y-13318214D01*
X2341071Y-13132500D02*
X2355357Y-13146786D01*
X2341071Y-13161071D01*
X2326786Y-13146786D01*
X2341071Y-13132500D01*
X2341071Y-13161071D01*
M02*
