G04 #@! TF.GenerationSoftware,KiCad,Pcbnew,5.1.10-88a1d61d58~88~ubuntu20.04.1*
G04 #@! TF.CreationDate,2021-06-12T13:15:57-04:00*
G04 #@! TF.ProjectId,front_panel,66726f6e-745f-4706-916e-656c2e6b6963,0*
G04 #@! TF.SameCoordinates,Original*
G04 #@! TF.FileFunction,Copper,L2,Bot*
G04 #@! TF.FilePolarity,Positive*
%FSLAX46Y46*%
G04 Gerber Fmt 4.6, Leading zero omitted, Abs format (unit mm)*
G04 Created by KiCad (PCBNEW 5.1.10-88a1d61d58~88~ubuntu20.04.1) date 2021-06-12 13:15:57*
%MOMM*%
%LPD*%
G01*
G04 APERTURE LIST*
G04 #@! TA.AperFunction,ComponentPad*
%ADD10C,5.600000*%
G04 #@! TD*
G04 #@! TA.AperFunction,Conductor*
%ADD11C,0.254000*%
G04 #@! TD*
G04 #@! TA.AperFunction,Conductor*
%ADD12C,0.100000*%
G04 #@! TD*
G04 APERTURE END LIST*
D10*
X53220000Y-125500000D03*
X53220000Y-3000000D03*
X7500000Y-125500000D03*
X7500000Y-3000000D03*
D11*
X5083517Y-763125D02*
X4634823Y-1075308D01*
X4314388Y-1671259D01*
X4116374Y-2318273D01*
X4048390Y-2991484D01*
X4113051Y-3665023D01*
X4307870Y-4313006D01*
X4625361Y-4910530D01*
X4634823Y-4924692D01*
X5083519Y-5236876D01*
X7320395Y-3000000D01*
X7306253Y-2985858D01*
X7485858Y-2806253D01*
X7500000Y-2820395D01*
X7514143Y-2806253D01*
X7693748Y-2985858D01*
X7679605Y-3000000D01*
X9916481Y-5236876D01*
X10365177Y-4924692D01*
X10685612Y-4328741D01*
X10883626Y-3681727D01*
X10951610Y-3008516D01*
X10886949Y-2334977D01*
X10692130Y-1686994D01*
X10374639Y-1089470D01*
X10365177Y-1075308D01*
X9916483Y-763125D01*
X10019608Y-660000D01*
X50700392Y-660000D01*
X50803517Y-763125D01*
X50354823Y-1075308D01*
X50034388Y-1671259D01*
X49836374Y-2318273D01*
X49768390Y-2991484D01*
X49833051Y-3665023D01*
X50027870Y-4313006D01*
X50345361Y-4910530D01*
X50354823Y-4924692D01*
X50803519Y-5236876D01*
X53040395Y-3000000D01*
X53026253Y-2985858D01*
X53205858Y-2806253D01*
X53220000Y-2820395D01*
X53234143Y-2806253D01*
X53413748Y-2985858D01*
X53399605Y-3000000D01*
X55636481Y-5236876D01*
X56085177Y-4924692D01*
X56405612Y-4328741D01*
X56603626Y-3681727D01*
X56671610Y-3008516D01*
X56606949Y-2334977D01*
X56412130Y-1686994D01*
X56094639Y-1089470D01*
X56085177Y-1075308D01*
X55636483Y-763125D01*
X55739608Y-660000D01*
X59940000Y-660000D01*
X59940001Y-127840000D01*
X55739608Y-127840000D01*
X55636483Y-127736875D01*
X56085177Y-127424692D01*
X56405612Y-126828741D01*
X56603626Y-126181727D01*
X56671610Y-125508516D01*
X56606949Y-124834977D01*
X56412130Y-124186994D01*
X56094639Y-123589470D01*
X56085177Y-123575308D01*
X55636481Y-123263124D01*
X53399605Y-125500000D01*
X53413748Y-125514143D01*
X53234143Y-125693748D01*
X53220000Y-125679605D01*
X53205858Y-125693748D01*
X53026253Y-125514143D01*
X53040395Y-125500000D01*
X50803519Y-123263124D01*
X50354823Y-123575308D01*
X50034388Y-124171259D01*
X49836374Y-124818273D01*
X49768390Y-125491484D01*
X49833051Y-126165023D01*
X50027870Y-126813006D01*
X50345361Y-127410530D01*
X50354823Y-127424692D01*
X50803517Y-127736875D01*
X50700392Y-127840000D01*
X10019608Y-127840000D01*
X9916483Y-127736875D01*
X10365177Y-127424692D01*
X10685612Y-126828741D01*
X10883626Y-126181727D01*
X10951610Y-125508516D01*
X10886949Y-124834977D01*
X10692130Y-124186994D01*
X10374639Y-123589470D01*
X10365177Y-123575308D01*
X9916481Y-123263124D01*
X7679605Y-125500000D01*
X7693748Y-125514143D01*
X7514143Y-125693748D01*
X7500000Y-125679605D01*
X7485858Y-125693748D01*
X7306253Y-125514143D01*
X7320395Y-125500000D01*
X5083519Y-123263124D01*
X4634823Y-123575308D01*
X4314388Y-124171259D01*
X4116374Y-124818273D01*
X4048390Y-125491484D01*
X4113051Y-126165023D01*
X4307870Y-126813006D01*
X4625361Y-127410530D01*
X4634823Y-127424692D01*
X5083517Y-127736875D01*
X4980392Y-127840000D01*
X660000Y-127840000D01*
X660000Y-123083519D01*
X5263124Y-123083519D01*
X7500000Y-125320395D01*
X9736876Y-123083519D01*
X50983124Y-123083519D01*
X53220000Y-125320395D01*
X55456876Y-123083519D01*
X55144692Y-122634823D01*
X54548741Y-122314388D01*
X53901727Y-122116374D01*
X53228516Y-122048390D01*
X52554977Y-122113051D01*
X51906994Y-122307870D01*
X51309470Y-122625361D01*
X51295308Y-122634823D01*
X50983124Y-123083519D01*
X9736876Y-123083519D01*
X9424692Y-122634823D01*
X8828741Y-122314388D01*
X8181727Y-122116374D01*
X7508516Y-122048390D01*
X6834977Y-122113051D01*
X6186994Y-122307870D01*
X5589470Y-122625361D01*
X5575308Y-122634823D01*
X5263124Y-123083519D01*
X660000Y-123083519D01*
X660000Y-108484396D01*
X19602961Y-108484396D01*
X19602961Y-109215604D01*
X19745613Y-109932762D01*
X20025434Y-110608310D01*
X20431671Y-111216287D01*
X20948713Y-111733329D01*
X21556690Y-112139566D01*
X22232238Y-112419387D01*
X22949396Y-112562039D01*
X23680604Y-112562039D01*
X24397762Y-112419387D01*
X25073310Y-112139566D01*
X25681287Y-111733329D01*
X26198329Y-111216287D01*
X26604566Y-110608310D01*
X26884387Y-109932762D01*
X27027039Y-109215604D01*
X27027039Y-108484396D01*
X33572961Y-108484396D01*
X33572961Y-109215604D01*
X33715613Y-109932762D01*
X33995434Y-110608310D01*
X34401671Y-111216287D01*
X34918713Y-111733329D01*
X35526690Y-112139566D01*
X36202238Y-112419387D01*
X36919396Y-112562039D01*
X37650604Y-112562039D01*
X38367762Y-112419387D01*
X39043310Y-112139566D01*
X39651287Y-111733329D01*
X40168329Y-111216287D01*
X40574566Y-110608310D01*
X40854387Y-109932762D01*
X40997039Y-109215604D01*
X40997039Y-108484396D01*
X47542961Y-108484396D01*
X47542961Y-109215604D01*
X47685613Y-109932762D01*
X47965434Y-110608310D01*
X48371671Y-111216287D01*
X48888713Y-111733329D01*
X49496690Y-112139566D01*
X50172238Y-112419387D01*
X50889396Y-112562039D01*
X51620604Y-112562039D01*
X52337762Y-112419387D01*
X53013310Y-112139566D01*
X53621287Y-111733329D01*
X54138329Y-111216287D01*
X54544566Y-110608310D01*
X54824387Y-109932762D01*
X54967039Y-109215604D01*
X54967039Y-108484396D01*
X54824387Y-107767238D01*
X54544566Y-107091690D01*
X54138329Y-106483713D01*
X53621287Y-105966671D01*
X53013310Y-105560434D01*
X52337762Y-105280613D01*
X51620604Y-105137961D01*
X50889396Y-105137961D01*
X50172238Y-105280613D01*
X49496690Y-105560434D01*
X48888713Y-105966671D01*
X48371671Y-106483713D01*
X47965434Y-107091690D01*
X47685613Y-107767238D01*
X47542961Y-108484396D01*
X40997039Y-108484396D01*
X40854387Y-107767238D01*
X40574566Y-107091690D01*
X40168329Y-106483713D01*
X39651287Y-105966671D01*
X39043310Y-105560434D01*
X38367762Y-105280613D01*
X37650604Y-105137961D01*
X36919396Y-105137961D01*
X36202238Y-105280613D01*
X35526690Y-105560434D01*
X34918713Y-105966671D01*
X34401671Y-106483713D01*
X33995434Y-107091690D01*
X33715613Y-107767238D01*
X33572961Y-108484396D01*
X27027039Y-108484396D01*
X26884387Y-107767238D01*
X26604566Y-107091690D01*
X26198329Y-106483713D01*
X25681287Y-105966671D01*
X25073310Y-105560434D01*
X24397762Y-105280613D01*
X23680604Y-105137961D01*
X22949396Y-105137961D01*
X22232238Y-105280613D01*
X21556690Y-105560434D01*
X20948713Y-105966671D01*
X20431671Y-106483713D01*
X20025434Y-107091690D01*
X19745613Y-107767238D01*
X19602961Y-108484396D01*
X660000Y-108484396D01*
X660000Y-94514396D01*
X5632961Y-94514396D01*
X5632961Y-95245604D01*
X5775613Y-95962762D01*
X6055434Y-96638310D01*
X6461671Y-97246287D01*
X6978713Y-97763329D01*
X7586690Y-98169566D01*
X8262238Y-98449387D01*
X8979396Y-98592039D01*
X9710604Y-98592039D01*
X10427762Y-98449387D01*
X11103310Y-98169566D01*
X11711287Y-97763329D01*
X12228329Y-97246287D01*
X12634566Y-96638310D01*
X12914387Y-95962762D01*
X13057039Y-95245604D01*
X13057039Y-94514396D01*
X19602961Y-94514396D01*
X19602961Y-95245604D01*
X19745613Y-95962762D01*
X20025434Y-96638310D01*
X20431671Y-97246287D01*
X20948713Y-97763329D01*
X21556690Y-98169566D01*
X22232238Y-98449387D01*
X22949396Y-98592039D01*
X23680604Y-98592039D01*
X24397762Y-98449387D01*
X25073310Y-98169566D01*
X25681287Y-97763329D01*
X26198329Y-97246287D01*
X26604566Y-96638310D01*
X26884387Y-95962762D01*
X27027039Y-95245604D01*
X27027039Y-94514396D01*
X33572961Y-94514396D01*
X33572961Y-95245604D01*
X33715613Y-95962762D01*
X33995434Y-96638310D01*
X34401671Y-97246287D01*
X34918713Y-97763329D01*
X35526690Y-98169566D01*
X36202238Y-98449387D01*
X36919396Y-98592039D01*
X37650604Y-98592039D01*
X38367762Y-98449387D01*
X39043310Y-98169566D01*
X39651287Y-97763329D01*
X40168329Y-97246287D01*
X40574566Y-96638310D01*
X40854387Y-95962762D01*
X40997039Y-95245604D01*
X40997039Y-94514396D01*
X47542961Y-94514396D01*
X47542961Y-95245604D01*
X47685613Y-95962762D01*
X47965434Y-96638310D01*
X48371671Y-97246287D01*
X48888713Y-97763329D01*
X49496690Y-98169566D01*
X50172238Y-98449387D01*
X50889396Y-98592039D01*
X51620604Y-98592039D01*
X52337762Y-98449387D01*
X53013310Y-98169566D01*
X53621287Y-97763329D01*
X54138329Y-97246287D01*
X54544566Y-96638310D01*
X54824387Y-95962762D01*
X54967039Y-95245604D01*
X54967039Y-94514396D01*
X54824387Y-93797238D01*
X54544566Y-93121690D01*
X54138329Y-92513713D01*
X53621287Y-91996671D01*
X53013310Y-91590434D01*
X52337762Y-91310613D01*
X51620604Y-91167961D01*
X50889396Y-91167961D01*
X50172238Y-91310613D01*
X49496690Y-91590434D01*
X48888713Y-91996671D01*
X48371671Y-92513713D01*
X47965434Y-93121690D01*
X47685613Y-93797238D01*
X47542961Y-94514396D01*
X40997039Y-94514396D01*
X40854387Y-93797238D01*
X40574566Y-93121690D01*
X40168329Y-92513713D01*
X39651287Y-91996671D01*
X39043310Y-91590434D01*
X38367762Y-91310613D01*
X37650604Y-91167961D01*
X36919396Y-91167961D01*
X36202238Y-91310613D01*
X35526690Y-91590434D01*
X34918713Y-91996671D01*
X34401671Y-92513713D01*
X33995434Y-93121690D01*
X33715613Y-93797238D01*
X33572961Y-94514396D01*
X27027039Y-94514396D01*
X26884387Y-93797238D01*
X26604566Y-93121690D01*
X26198329Y-92513713D01*
X25681287Y-91996671D01*
X25073310Y-91590434D01*
X24397762Y-91310613D01*
X23680604Y-91167961D01*
X22949396Y-91167961D01*
X22232238Y-91310613D01*
X21556690Y-91590434D01*
X20948713Y-91996671D01*
X20431671Y-92513713D01*
X20025434Y-93121690D01*
X19745613Y-93797238D01*
X19602961Y-94514396D01*
X13057039Y-94514396D01*
X12914387Y-93797238D01*
X12634566Y-93121690D01*
X12228329Y-92513713D01*
X11711287Y-91996671D01*
X11103310Y-91590434D01*
X10427762Y-91310613D01*
X9710604Y-91167961D01*
X8979396Y-91167961D01*
X8262238Y-91310613D01*
X7586690Y-91590434D01*
X6978713Y-91996671D01*
X6461671Y-92513713D01*
X6055434Y-93121690D01*
X5775613Y-93797238D01*
X5632961Y-94514396D01*
X660000Y-94514396D01*
X660000Y-64034396D01*
X8807961Y-64034396D01*
X8807961Y-64765604D01*
X8950613Y-65482762D01*
X9230434Y-66158310D01*
X9636671Y-66766287D01*
X10153713Y-67283329D01*
X10761690Y-67689566D01*
X11437238Y-67969387D01*
X12154396Y-68112039D01*
X12885604Y-68112039D01*
X13602762Y-67969387D01*
X14278310Y-67689566D01*
X14886287Y-67283329D01*
X15403329Y-66766287D01*
X15809566Y-66158310D01*
X16089387Y-65482762D01*
X16232039Y-64765604D01*
X16232039Y-64034396D01*
X16222291Y-63985387D01*
X26090369Y-63985387D01*
X26090369Y-64814613D01*
X26252142Y-65627904D01*
X26569473Y-66394008D01*
X27030166Y-67083484D01*
X27616516Y-67669834D01*
X28305992Y-68130527D01*
X29072096Y-68447858D01*
X29885387Y-68609631D01*
X30714613Y-68609631D01*
X31527904Y-68447858D01*
X32294008Y-68130527D01*
X32983484Y-67669834D01*
X33569834Y-67083484D01*
X34030527Y-66394008D01*
X34347858Y-65627904D01*
X34509631Y-64814613D01*
X34509631Y-63985387D01*
X43870369Y-63985387D01*
X43870369Y-64814613D01*
X44032142Y-65627904D01*
X44349473Y-66394008D01*
X44810166Y-67083484D01*
X45396516Y-67669834D01*
X46085992Y-68130527D01*
X46852096Y-68447858D01*
X47665387Y-68609631D01*
X48494613Y-68609631D01*
X49307904Y-68447858D01*
X50074008Y-68130527D01*
X50763484Y-67669834D01*
X51349834Y-67083484D01*
X51810527Y-66394008D01*
X52127858Y-65627904D01*
X52289631Y-64814613D01*
X52289631Y-63985387D01*
X52127858Y-63172096D01*
X51810527Y-62405992D01*
X51349834Y-61716516D01*
X50763484Y-61130166D01*
X50074008Y-60669473D01*
X49307904Y-60352142D01*
X48494613Y-60190369D01*
X47665387Y-60190369D01*
X46852096Y-60352142D01*
X46085992Y-60669473D01*
X45396516Y-61130166D01*
X44810166Y-61716516D01*
X44349473Y-62405992D01*
X44032142Y-63172096D01*
X43870369Y-63985387D01*
X34509631Y-63985387D01*
X34347858Y-63172096D01*
X34030527Y-62405992D01*
X33569834Y-61716516D01*
X32983484Y-61130166D01*
X32294008Y-60669473D01*
X31527904Y-60352142D01*
X30714613Y-60190369D01*
X29885387Y-60190369D01*
X29072096Y-60352142D01*
X28305992Y-60669473D01*
X27616516Y-61130166D01*
X27030166Y-61716516D01*
X26569473Y-62405992D01*
X26252142Y-63172096D01*
X26090369Y-63985387D01*
X16222291Y-63985387D01*
X16089387Y-63317238D01*
X15809566Y-62641690D01*
X15403329Y-62033713D01*
X14886287Y-61516671D01*
X14278310Y-61110434D01*
X13602762Y-60830613D01*
X12885604Y-60687961D01*
X12154396Y-60687961D01*
X11437238Y-60830613D01*
X10761690Y-61110434D01*
X10153713Y-61516671D01*
X9636671Y-62033713D01*
X9230434Y-62641690D01*
X8950613Y-63317238D01*
X8807961Y-64034396D01*
X660000Y-64034396D01*
X660000Y-25885387D01*
X8310369Y-25885387D01*
X8310369Y-26714613D01*
X8472142Y-27527904D01*
X8789473Y-28294008D01*
X9250166Y-28983484D01*
X9836516Y-29569834D01*
X10525992Y-30030527D01*
X11292096Y-30347858D01*
X12105387Y-30509631D01*
X12934613Y-30509631D01*
X13747904Y-30347858D01*
X14514008Y-30030527D01*
X15203484Y-29569834D01*
X15789834Y-28983484D01*
X16250527Y-28294008D01*
X16567858Y-27527904D01*
X16729631Y-26714613D01*
X16729631Y-25885387D01*
X43870369Y-25885387D01*
X43870369Y-26714613D01*
X44032142Y-27527904D01*
X44349473Y-28294008D01*
X44810166Y-28983484D01*
X45396516Y-29569834D01*
X46085992Y-30030527D01*
X46852096Y-30347858D01*
X47665387Y-30509631D01*
X48494613Y-30509631D01*
X49307904Y-30347858D01*
X50074008Y-30030527D01*
X50763484Y-29569834D01*
X51349834Y-28983484D01*
X51810527Y-28294008D01*
X52127858Y-27527904D01*
X52289631Y-26714613D01*
X52289631Y-25885387D01*
X52127858Y-25072096D01*
X51810527Y-24305992D01*
X51349834Y-23616516D01*
X50763484Y-23030166D01*
X50074008Y-22569473D01*
X49307904Y-22252142D01*
X48494613Y-22090369D01*
X47665387Y-22090369D01*
X46852096Y-22252142D01*
X46085992Y-22569473D01*
X45396516Y-23030166D01*
X44810166Y-23616516D01*
X44349473Y-24305992D01*
X44032142Y-25072096D01*
X43870369Y-25885387D01*
X16729631Y-25885387D01*
X16567858Y-25072096D01*
X16250527Y-24305992D01*
X15789834Y-23616516D01*
X15203484Y-23030166D01*
X14514008Y-22569473D01*
X13747904Y-22252142D01*
X12934613Y-22090369D01*
X12105387Y-22090369D01*
X11292096Y-22252142D01*
X10525992Y-22569473D01*
X9836516Y-23030166D01*
X9250166Y-23616516D01*
X8789473Y-24305992D01*
X8472142Y-25072096D01*
X8310369Y-25885387D01*
X660000Y-25885387D01*
X660000Y-5416481D01*
X5263124Y-5416481D01*
X5575308Y-5865177D01*
X6171259Y-6185612D01*
X6818273Y-6383626D01*
X7491484Y-6451610D01*
X8165023Y-6386949D01*
X8813006Y-6192130D01*
X9410530Y-5874639D01*
X9424692Y-5865177D01*
X9736876Y-5416481D01*
X50983124Y-5416481D01*
X51295308Y-5865177D01*
X51891259Y-6185612D01*
X52538273Y-6383626D01*
X53211484Y-6451610D01*
X53885023Y-6386949D01*
X54533006Y-6192130D01*
X55130530Y-5874639D01*
X55144692Y-5865177D01*
X55456876Y-5416481D01*
X53220000Y-3179605D01*
X50983124Y-5416481D01*
X9736876Y-5416481D01*
X7500000Y-3179605D01*
X5263124Y-5416481D01*
X660000Y-5416481D01*
X660000Y-660000D01*
X4980392Y-660000D01*
X5083517Y-763125D01*
G04 #@! TA.AperFunction,Conductor*
D12*
G36*
X5083517Y-763125D02*
G01*
X4634823Y-1075308D01*
X4314388Y-1671259D01*
X4116374Y-2318273D01*
X4048390Y-2991484D01*
X4113051Y-3665023D01*
X4307870Y-4313006D01*
X4625361Y-4910530D01*
X4634823Y-4924692D01*
X5083519Y-5236876D01*
X7320395Y-3000000D01*
X7306253Y-2985858D01*
X7485858Y-2806253D01*
X7500000Y-2820395D01*
X7514143Y-2806253D01*
X7693748Y-2985858D01*
X7679605Y-3000000D01*
X9916481Y-5236876D01*
X10365177Y-4924692D01*
X10685612Y-4328741D01*
X10883626Y-3681727D01*
X10951610Y-3008516D01*
X10886949Y-2334977D01*
X10692130Y-1686994D01*
X10374639Y-1089470D01*
X10365177Y-1075308D01*
X9916483Y-763125D01*
X10019608Y-660000D01*
X50700392Y-660000D01*
X50803517Y-763125D01*
X50354823Y-1075308D01*
X50034388Y-1671259D01*
X49836374Y-2318273D01*
X49768390Y-2991484D01*
X49833051Y-3665023D01*
X50027870Y-4313006D01*
X50345361Y-4910530D01*
X50354823Y-4924692D01*
X50803519Y-5236876D01*
X53040395Y-3000000D01*
X53026253Y-2985858D01*
X53205858Y-2806253D01*
X53220000Y-2820395D01*
X53234143Y-2806253D01*
X53413748Y-2985858D01*
X53399605Y-3000000D01*
X55636481Y-5236876D01*
X56085177Y-4924692D01*
X56405612Y-4328741D01*
X56603626Y-3681727D01*
X56671610Y-3008516D01*
X56606949Y-2334977D01*
X56412130Y-1686994D01*
X56094639Y-1089470D01*
X56085177Y-1075308D01*
X55636483Y-763125D01*
X55739608Y-660000D01*
X59940000Y-660000D01*
X59940001Y-127840000D01*
X55739608Y-127840000D01*
X55636483Y-127736875D01*
X56085177Y-127424692D01*
X56405612Y-126828741D01*
X56603626Y-126181727D01*
X56671610Y-125508516D01*
X56606949Y-124834977D01*
X56412130Y-124186994D01*
X56094639Y-123589470D01*
X56085177Y-123575308D01*
X55636481Y-123263124D01*
X53399605Y-125500000D01*
X53413748Y-125514143D01*
X53234143Y-125693748D01*
X53220000Y-125679605D01*
X53205858Y-125693748D01*
X53026253Y-125514143D01*
X53040395Y-125500000D01*
X50803519Y-123263124D01*
X50354823Y-123575308D01*
X50034388Y-124171259D01*
X49836374Y-124818273D01*
X49768390Y-125491484D01*
X49833051Y-126165023D01*
X50027870Y-126813006D01*
X50345361Y-127410530D01*
X50354823Y-127424692D01*
X50803517Y-127736875D01*
X50700392Y-127840000D01*
X10019608Y-127840000D01*
X9916483Y-127736875D01*
X10365177Y-127424692D01*
X10685612Y-126828741D01*
X10883626Y-126181727D01*
X10951610Y-125508516D01*
X10886949Y-124834977D01*
X10692130Y-124186994D01*
X10374639Y-123589470D01*
X10365177Y-123575308D01*
X9916481Y-123263124D01*
X7679605Y-125500000D01*
X7693748Y-125514143D01*
X7514143Y-125693748D01*
X7500000Y-125679605D01*
X7485858Y-125693748D01*
X7306253Y-125514143D01*
X7320395Y-125500000D01*
X5083519Y-123263124D01*
X4634823Y-123575308D01*
X4314388Y-124171259D01*
X4116374Y-124818273D01*
X4048390Y-125491484D01*
X4113051Y-126165023D01*
X4307870Y-126813006D01*
X4625361Y-127410530D01*
X4634823Y-127424692D01*
X5083517Y-127736875D01*
X4980392Y-127840000D01*
X660000Y-127840000D01*
X660000Y-123083519D01*
X5263124Y-123083519D01*
X7500000Y-125320395D01*
X9736876Y-123083519D01*
X50983124Y-123083519D01*
X53220000Y-125320395D01*
X55456876Y-123083519D01*
X55144692Y-122634823D01*
X54548741Y-122314388D01*
X53901727Y-122116374D01*
X53228516Y-122048390D01*
X52554977Y-122113051D01*
X51906994Y-122307870D01*
X51309470Y-122625361D01*
X51295308Y-122634823D01*
X50983124Y-123083519D01*
X9736876Y-123083519D01*
X9424692Y-122634823D01*
X8828741Y-122314388D01*
X8181727Y-122116374D01*
X7508516Y-122048390D01*
X6834977Y-122113051D01*
X6186994Y-122307870D01*
X5589470Y-122625361D01*
X5575308Y-122634823D01*
X5263124Y-123083519D01*
X660000Y-123083519D01*
X660000Y-108484396D01*
X19602961Y-108484396D01*
X19602961Y-109215604D01*
X19745613Y-109932762D01*
X20025434Y-110608310D01*
X20431671Y-111216287D01*
X20948713Y-111733329D01*
X21556690Y-112139566D01*
X22232238Y-112419387D01*
X22949396Y-112562039D01*
X23680604Y-112562039D01*
X24397762Y-112419387D01*
X25073310Y-112139566D01*
X25681287Y-111733329D01*
X26198329Y-111216287D01*
X26604566Y-110608310D01*
X26884387Y-109932762D01*
X27027039Y-109215604D01*
X27027039Y-108484396D01*
X33572961Y-108484396D01*
X33572961Y-109215604D01*
X33715613Y-109932762D01*
X33995434Y-110608310D01*
X34401671Y-111216287D01*
X34918713Y-111733329D01*
X35526690Y-112139566D01*
X36202238Y-112419387D01*
X36919396Y-112562039D01*
X37650604Y-112562039D01*
X38367762Y-112419387D01*
X39043310Y-112139566D01*
X39651287Y-111733329D01*
X40168329Y-111216287D01*
X40574566Y-110608310D01*
X40854387Y-109932762D01*
X40997039Y-109215604D01*
X40997039Y-108484396D01*
X47542961Y-108484396D01*
X47542961Y-109215604D01*
X47685613Y-109932762D01*
X47965434Y-110608310D01*
X48371671Y-111216287D01*
X48888713Y-111733329D01*
X49496690Y-112139566D01*
X50172238Y-112419387D01*
X50889396Y-112562039D01*
X51620604Y-112562039D01*
X52337762Y-112419387D01*
X53013310Y-112139566D01*
X53621287Y-111733329D01*
X54138329Y-111216287D01*
X54544566Y-110608310D01*
X54824387Y-109932762D01*
X54967039Y-109215604D01*
X54967039Y-108484396D01*
X54824387Y-107767238D01*
X54544566Y-107091690D01*
X54138329Y-106483713D01*
X53621287Y-105966671D01*
X53013310Y-105560434D01*
X52337762Y-105280613D01*
X51620604Y-105137961D01*
X50889396Y-105137961D01*
X50172238Y-105280613D01*
X49496690Y-105560434D01*
X48888713Y-105966671D01*
X48371671Y-106483713D01*
X47965434Y-107091690D01*
X47685613Y-107767238D01*
X47542961Y-108484396D01*
X40997039Y-108484396D01*
X40854387Y-107767238D01*
X40574566Y-107091690D01*
X40168329Y-106483713D01*
X39651287Y-105966671D01*
X39043310Y-105560434D01*
X38367762Y-105280613D01*
X37650604Y-105137961D01*
X36919396Y-105137961D01*
X36202238Y-105280613D01*
X35526690Y-105560434D01*
X34918713Y-105966671D01*
X34401671Y-106483713D01*
X33995434Y-107091690D01*
X33715613Y-107767238D01*
X33572961Y-108484396D01*
X27027039Y-108484396D01*
X26884387Y-107767238D01*
X26604566Y-107091690D01*
X26198329Y-106483713D01*
X25681287Y-105966671D01*
X25073310Y-105560434D01*
X24397762Y-105280613D01*
X23680604Y-105137961D01*
X22949396Y-105137961D01*
X22232238Y-105280613D01*
X21556690Y-105560434D01*
X20948713Y-105966671D01*
X20431671Y-106483713D01*
X20025434Y-107091690D01*
X19745613Y-107767238D01*
X19602961Y-108484396D01*
X660000Y-108484396D01*
X660000Y-94514396D01*
X5632961Y-94514396D01*
X5632961Y-95245604D01*
X5775613Y-95962762D01*
X6055434Y-96638310D01*
X6461671Y-97246287D01*
X6978713Y-97763329D01*
X7586690Y-98169566D01*
X8262238Y-98449387D01*
X8979396Y-98592039D01*
X9710604Y-98592039D01*
X10427762Y-98449387D01*
X11103310Y-98169566D01*
X11711287Y-97763329D01*
X12228329Y-97246287D01*
X12634566Y-96638310D01*
X12914387Y-95962762D01*
X13057039Y-95245604D01*
X13057039Y-94514396D01*
X19602961Y-94514396D01*
X19602961Y-95245604D01*
X19745613Y-95962762D01*
X20025434Y-96638310D01*
X20431671Y-97246287D01*
X20948713Y-97763329D01*
X21556690Y-98169566D01*
X22232238Y-98449387D01*
X22949396Y-98592039D01*
X23680604Y-98592039D01*
X24397762Y-98449387D01*
X25073310Y-98169566D01*
X25681287Y-97763329D01*
X26198329Y-97246287D01*
X26604566Y-96638310D01*
X26884387Y-95962762D01*
X27027039Y-95245604D01*
X27027039Y-94514396D01*
X33572961Y-94514396D01*
X33572961Y-95245604D01*
X33715613Y-95962762D01*
X33995434Y-96638310D01*
X34401671Y-97246287D01*
X34918713Y-97763329D01*
X35526690Y-98169566D01*
X36202238Y-98449387D01*
X36919396Y-98592039D01*
X37650604Y-98592039D01*
X38367762Y-98449387D01*
X39043310Y-98169566D01*
X39651287Y-97763329D01*
X40168329Y-97246287D01*
X40574566Y-96638310D01*
X40854387Y-95962762D01*
X40997039Y-95245604D01*
X40997039Y-94514396D01*
X47542961Y-94514396D01*
X47542961Y-95245604D01*
X47685613Y-95962762D01*
X47965434Y-96638310D01*
X48371671Y-97246287D01*
X48888713Y-97763329D01*
X49496690Y-98169566D01*
X50172238Y-98449387D01*
X50889396Y-98592039D01*
X51620604Y-98592039D01*
X52337762Y-98449387D01*
X53013310Y-98169566D01*
X53621287Y-97763329D01*
X54138329Y-97246287D01*
X54544566Y-96638310D01*
X54824387Y-95962762D01*
X54967039Y-95245604D01*
X54967039Y-94514396D01*
X54824387Y-93797238D01*
X54544566Y-93121690D01*
X54138329Y-92513713D01*
X53621287Y-91996671D01*
X53013310Y-91590434D01*
X52337762Y-91310613D01*
X51620604Y-91167961D01*
X50889396Y-91167961D01*
X50172238Y-91310613D01*
X49496690Y-91590434D01*
X48888713Y-91996671D01*
X48371671Y-92513713D01*
X47965434Y-93121690D01*
X47685613Y-93797238D01*
X47542961Y-94514396D01*
X40997039Y-94514396D01*
X40854387Y-93797238D01*
X40574566Y-93121690D01*
X40168329Y-92513713D01*
X39651287Y-91996671D01*
X39043310Y-91590434D01*
X38367762Y-91310613D01*
X37650604Y-91167961D01*
X36919396Y-91167961D01*
X36202238Y-91310613D01*
X35526690Y-91590434D01*
X34918713Y-91996671D01*
X34401671Y-92513713D01*
X33995434Y-93121690D01*
X33715613Y-93797238D01*
X33572961Y-94514396D01*
X27027039Y-94514396D01*
X26884387Y-93797238D01*
X26604566Y-93121690D01*
X26198329Y-92513713D01*
X25681287Y-91996671D01*
X25073310Y-91590434D01*
X24397762Y-91310613D01*
X23680604Y-91167961D01*
X22949396Y-91167961D01*
X22232238Y-91310613D01*
X21556690Y-91590434D01*
X20948713Y-91996671D01*
X20431671Y-92513713D01*
X20025434Y-93121690D01*
X19745613Y-93797238D01*
X19602961Y-94514396D01*
X13057039Y-94514396D01*
X12914387Y-93797238D01*
X12634566Y-93121690D01*
X12228329Y-92513713D01*
X11711287Y-91996671D01*
X11103310Y-91590434D01*
X10427762Y-91310613D01*
X9710604Y-91167961D01*
X8979396Y-91167961D01*
X8262238Y-91310613D01*
X7586690Y-91590434D01*
X6978713Y-91996671D01*
X6461671Y-92513713D01*
X6055434Y-93121690D01*
X5775613Y-93797238D01*
X5632961Y-94514396D01*
X660000Y-94514396D01*
X660000Y-64034396D01*
X8807961Y-64034396D01*
X8807961Y-64765604D01*
X8950613Y-65482762D01*
X9230434Y-66158310D01*
X9636671Y-66766287D01*
X10153713Y-67283329D01*
X10761690Y-67689566D01*
X11437238Y-67969387D01*
X12154396Y-68112039D01*
X12885604Y-68112039D01*
X13602762Y-67969387D01*
X14278310Y-67689566D01*
X14886287Y-67283329D01*
X15403329Y-66766287D01*
X15809566Y-66158310D01*
X16089387Y-65482762D01*
X16232039Y-64765604D01*
X16232039Y-64034396D01*
X16222291Y-63985387D01*
X26090369Y-63985387D01*
X26090369Y-64814613D01*
X26252142Y-65627904D01*
X26569473Y-66394008D01*
X27030166Y-67083484D01*
X27616516Y-67669834D01*
X28305992Y-68130527D01*
X29072096Y-68447858D01*
X29885387Y-68609631D01*
X30714613Y-68609631D01*
X31527904Y-68447858D01*
X32294008Y-68130527D01*
X32983484Y-67669834D01*
X33569834Y-67083484D01*
X34030527Y-66394008D01*
X34347858Y-65627904D01*
X34509631Y-64814613D01*
X34509631Y-63985387D01*
X43870369Y-63985387D01*
X43870369Y-64814613D01*
X44032142Y-65627904D01*
X44349473Y-66394008D01*
X44810166Y-67083484D01*
X45396516Y-67669834D01*
X46085992Y-68130527D01*
X46852096Y-68447858D01*
X47665387Y-68609631D01*
X48494613Y-68609631D01*
X49307904Y-68447858D01*
X50074008Y-68130527D01*
X50763484Y-67669834D01*
X51349834Y-67083484D01*
X51810527Y-66394008D01*
X52127858Y-65627904D01*
X52289631Y-64814613D01*
X52289631Y-63985387D01*
X52127858Y-63172096D01*
X51810527Y-62405992D01*
X51349834Y-61716516D01*
X50763484Y-61130166D01*
X50074008Y-60669473D01*
X49307904Y-60352142D01*
X48494613Y-60190369D01*
X47665387Y-60190369D01*
X46852096Y-60352142D01*
X46085992Y-60669473D01*
X45396516Y-61130166D01*
X44810166Y-61716516D01*
X44349473Y-62405992D01*
X44032142Y-63172096D01*
X43870369Y-63985387D01*
X34509631Y-63985387D01*
X34347858Y-63172096D01*
X34030527Y-62405992D01*
X33569834Y-61716516D01*
X32983484Y-61130166D01*
X32294008Y-60669473D01*
X31527904Y-60352142D01*
X30714613Y-60190369D01*
X29885387Y-60190369D01*
X29072096Y-60352142D01*
X28305992Y-60669473D01*
X27616516Y-61130166D01*
X27030166Y-61716516D01*
X26569473Y-62405992D01*
X26252142Y-63172096D01*
X26090369Y-63985387D01*
X16222291Y-63985387D01*
X16089387Y-63317238D01*
X15809566Y-62641690D01*
X15403329Y-62033713D01*
X14886287Y-61516671D01*
X14278310Y-61110434D01*
X13602762Y-60830613D01*
X12885604Y-60687961D01*
X12154396Y-60687961D01*
X11437238Y-60830613D01*
X10761690Y-61110434D01*
X10153713Y-61516671D01*
X9636671Y-62033713D01*
X9230434Y-62641690D01*
X8950613Y-63317238D01*
X8807961Y-64034396D01*
X660000Y-64034396D01*
X660000Y-25885387D01*
X8310369Y-25885387D01*
X8310369Y-26714613D01*
X8472142Y-27527904D01*
X8789473Y-28294008D01*
X9250166Y-28983484D01*
X9836516Y-29569834D01*
X10525992Y-30030527D01*
X11292096Y-30347858D01*
X12105387Y-30509631D01*
X12934613Y-30509631D01*
X13747904Y-30347858D01*
X14514008Y-30030527D01*
X15203484Y-29569834D01*
X15789834Y-28983484D01*
X16250527Y-28294008D01*
X16567858Y-27527904D01*
X16729631Y-26714613D01*
X16729631Y-25885387D01*
X43870369Y-25885387D01*
X43870369Y-26714613D01*
X44032142Y-27527904D01*
X44349473Y-28294008D01*
X44810166Y-28983484D01*
X45396516Y-29569834D01*
X46085992Y-30030527D01*
X46852096Y-30347858D01*
X47665387Y-30509631D01*
X48494613Y-30509631D01*
X49307904Y-30347858D01*
X50074008Y-30030527D01*
X50763484Y-29569834D01*
X51349834Y-28983484D01*
X51810527Y-28294008D01*
X52127858Y-27527904D01*
X52289631Y-26714613D01*
X52289631Y-25885387D01*
X52127858Y-25072096D01*
X51810527Y-24305992D01*
X51349834Y-23616516D01*
X50763484Y-23030166D01*
X50074008Y-22569473D01*
X49307904Y-22252142D01*
X48494613Y-22090369D01*
X47665387Y-22090369D01*
X46852096Y-22252142D01*
X46085992Y-22569473D01*
X45396516Y-23030166D01*
X44810166Y-23616516D01*
X44349473Y-24305992D01*
X44032142Y-25072096D01*
X43870369Y-25885387D01*
X16729631Y-25885387D01*
X16567858Y-25072096D01*
X16250527Y-24305992D01*
X15789834Y-23616516D01*
X15203484Y-23030166D01*
X14514008Y-22569473D01*
X13747904Y-22252142D01*
X12934613Y-22090369D01*
X12105387Y-22090369D01*
X11292096Y-22252142D01*
X10525992Y-22569473D01*
X9836516Y-23030166D01*
X9250166Y-23616516D01*
X8789473Y-24305992D01*
X8472142Y-25072096D01*
X8310369Y-25885387D01*
X660000Y-25885387D01*
X660000Y-5416481D01*
X5263124Y-5416481D01*
X5575308Y-5865177D01*
X6171259Y-6185612D01*
X6818273Y-6383626D01*
X7491484Y-6451610D01*
X8165023Y-6386949D01*
X8813006Y-6192130D01*
X9410530Y-5874639D01*
X9424692Y-5865177D01*
X9736876Y-5416481D01*
X50983124Y-5416481D01*
X51295308Y-5865177D01*
X51891259Y-6185612D01*
X52538273Y-6383626D01*
X53211484Y-6451610D01*
X53885023Y-6386949D01*
X54533006Y-6192130D01*
X55130530Y-5874639D01*
X55144692Y-5865177D01*
X55456876Y-5416481D01*
X53220000Y-3179605D01*
X50983124Y-5416481D01*
X9736876Y-5416481D01*
X7500000Y-3179605D01*
X5263124Y-5416481D01*
X660000Y-5416481D01*
X660000Y-660000D01*
X4980392Y-660000D01*
X5083517Y-763125D01*
G37*
G04 #@! TD.AperFunction*
M02*
