G04 #@! TF.GenerationSoftware,KiCad,Pcbnew,5.1.10-88a1d61d58~88~ubuntu20.04.1*
G04 #@! TF.CreationDate,2021-06-12T13:15:57-04:00*
G04 #@! TF.ProjectId,front_panel,66726f6e-745f-4706-916e-656c2e6b6963,0*
G04 #@! TF.SameCoordinates,Original*
G04 #@! TF.FileFunction,Legend,Top*
G04 #@! TF.FilePolarity,Positive*
%FSLAX46Y46*%
G04 Gerber Fmt 4.6, Leading zero omitted, Abs format (unit mm)*
G04 Created by KiCad (PCBNEW 5.1.10-88a1d61d58~88~ubuntu20.04.1) date 2021-06-12 13:15:57*
%MOMM*%
%LPD*%
G01*
G04 APERTURE LIST*
%ADD10C,0.300000*%
%ADD11C,5.700000*%
G04 APERTURE END LIST*
D10*
X9067619Y-54030952D02*
X9067619Y-52721428D01*
X8948571Y-52483333D01*
X8710476Y-52364285D01*
X8234285Y-52364285D01*
X7996190Y-52483333D01*
X9067619Y-53911904D02*
X8829523Y-54030952D01*
X8234285Y-54030952D01*
X7996190Y-53911904D01*
X7877142Y-53673809D01*
X7877142Y-53435714D01*
X7996190Y-53197619D01*
X8234285Y-53078571D01*
X8829523Y-53078571D01*
X9067619Y-52959523D01*
X11329523Y-52364285D02*
X11329523Y-54030952D01*
X10258095Y-52364285D02*
X10258095Y-53673809D01*
X10377142Y-53911904D01*
X10615238Y-54030952D01*
X10972380Y-54030952D01*
X11210476Y-53911904D01*
X11329523Y-53792857D01*
X13591428Y-54030952D02*
X13591428Y-51530952D01*
X13591428Y-53911904D02*
X13353333Y-54030952D01*
X12877142Y-54030952D01*
X12639047Y-53911904D01*
X12520000Y-53792857D01*
X12400952Y-53554761D01*
X12400952Y-52840476D01*
X12520000Y-52602380D01*
X12639047Y-52483333D01*
X12877142Y-52364285D01*
X13353333Y-52364285D01*
X13591428Y-52483333D01*
X14781904Y-54030952D02*
X14781904Y-52364285D01*
X14781904Y-51530952D02*
X14662857Y-51650000D01*
X14781904Y-51769047D01*
X14900952Y-51650000D01*
X14781904Y-51530952D01*
X14781904Y-51769047D01*
X16329523Y-54030952D02*
X16091428Y-53911904D01*
X15972380Y-53792857D01*
X15853333Y-53554761D01*
X15853333Y-52840476D01*
X15972380Y-52602380D01*
X16091428Y-52483333D01*
X16329523Y-52364285D01*
X16686666Y-52364285D01*
X16924761Y-52483333D01*
X17043809Y-52602380D01*
X17162857Y-52840476D01*
X17162857Y-53554761D01*
X17043809Y-53792857D01*
X16924761Y-53911904D01*
X16686666Y-54030952D01*
X16329523Y-54030952D01*
X5139047Y-77030952D02*
X4900952Y-76911904D01*
X4781904Y-76673809D01*
X4781904Y-74530952D01*
X6448571Y-77030952D02*
X6210476Y-76911904D01*
X6091428Y-76792857D01*
X5972380Y-76554761D01*
X5972380Y-75840476D01*
X6091428Y-75602380D01*
X6210476Y-75483333D01*
X6448571Y-75364285D01*
X6805714Y-75364285D01*
X7043809Y-75483333D01*
X7162857Y-75602380D01*
X7281904Y-75840476D01*
X7281904Y-76554761D01*
X7162857Y-76792857D01*
X7043809Y-76911904D01*
X6805714Y-77030952D01*
X6448571Y-77030952D01*
X8115238Y-75364285D02*
X8591428Y-77030952D01*
X9067619Y-75840476D01*
X9543809Y-77030952D01*
X10020000Y-75364285D01*
X12520000Y-75364285D02*
X13472380Y-75364285D01*
X12877142Y-77030952D02*
X12877142Y-74888095D01*
X12996190Y-74650000D01*
X13234285Y-74530952D01*
X13472380Y-74530952D01*
X14305714Y-77030952D02*
X14305714Y-75364285D01*
X14305714Y-75840476D02*
X14424761Y-75602380D01*
X14543809Y-75483333D01*
X14781904Y-75364285D01*
X15020000Y-75364285D01*
X16805714Y-76911904D02*
X16567619Y-77030952D01*
X16091428Y-77030952D01*
X15853333Y-76911904D01*
X15734285Y-76673809D01*
X15734285Y-75721428D01*
X15853333Y-75483333D01*
X16091428Y-75364285D01*
X16567619Y-75364285D01*
X16805714Y-75483333D01*
X16924761Y-75721428D01*
X16924761Y-75959523D01*
X15734285Y-76197619D01*
X19067619Y-75364285D02*
X19067619Y-77864285D01*
X19067619Y-76911904D02*
X18829523Y-77030952D01*
X18353333Y-77030952D01*
X18115238Y-76911904D01*
X17996190Y-76792857D01*
X17877142Y-76554761D01*
X17877142Y-75840476D01*
X17996190Y-75602380D01*
X18115238Y-75483333D01*
X18353333Y-75364285D01*
X18829523Y-75364285D01*
X19067619Y-75483333D01*
X20258095Y-76792857D02*
X20377142Y-76911904D01*
X20258095Y-77030952D01*
X20139047Y-76911904D01*
X20258095Y-76792857D01*
X20258095Y-77030952D01*
X46069285Y-115295238D02*
X46069285Y-113095238D01*
X46069285Y-114142857D02*
X47326428Y-114142857D01*
X47326428Y-115295238D02*
X47326428Y-113095238D01*
X48374047Y-115295238D02*
X48374047Y-113095238D01*
X49212142Y-113095238D01*
X49421666Y-113200000D01*
X49526428Y-113304761D01*
X49631190Y-113514285D01*
X49631190Y-113828571D01*
X49526428Y-114038095D01*
X49421666Y-114142857D01*
X49212142Y-114247619D01*
X48374047Y-114247619D01*
X52564523Y-115295238D02*
X52355000Y-115190476D01*
X52250238Y-115085714D01*
X52145476Y-114876190D01*
X52145476Y-114247619D01*
X52250238Y-114038095D01*
X52355000Y-113933333D01*
X52564523Y-113828571D01*
X52878809Y-113828571D01*
X53088333Y-113933333D01*
X53193095Y-114038095D01*
X53297857Y-114247619D01*
X53297857Y-114876190D01*
X53193095Y-115085714D01*
X53088333Y-115190476D01*
X52878809Y-115295238D01*
X52564523Y-115295238D01*
X55183571Y-113828571D02*
X55183571Y-115295238D01*
X54240714Y-113828571D02*
X54240714Y-114980952D01*
X54345476Y-115190476D01*
X54555000Y-115295238D01*
X54869285Y-115295238D01*
X55078809Y-115190476D01*
X55183571Y-115085714D01*
X55916904Y-113828571D02*
X56755000Y-113828571D01*
X56231190Y-113095238D02*
X56231190Y-114980952D01*
X56335952Y-115190476D01*
X56545476Y-115295238D01*
X56755000Y-115295238D01*
X32885000Y-114142857D02*
X33199285Y-114247619D01*
X33304047Y-114352380D01*
X33408809Y-114561904D01*
X33408809Y-114876190D01*
X33304047Y-115085714D01*
X33199285Y-115190476D01*
X32989761Y-115295238D01*
X32151666Y-115295238D01*
X32151666Y-113095238D01*
X32885000Y-113095238D01*
X33094523Y-113200000D01*
X33199285Y-113304761D01*
X33304047Y-113514285D01*
X33304047Y-113723809D01*
X33199285Y-113933333D01*
X33094523Y-114038095D01*
X32885000Y-114142857D01*
X32151666Y-114142857D01*
X34351666Y-115295238D02*
X34351666Y-113095238D01*
X35189761Y-113095238D01*
X35399285Y-113200000D01*
X35504047Y-113304761D01*
X35608809Y-113514285D01*
X35608809Y-113828571D01*
X35504047Y-114038095D01*
X35399285Y-114142857D01*
X35189761Y-114247619D01*
X34351666Y-114247619D01*
X38542142Y-115295238D02*
X38332619Y-115190476D01*
X38227857Y-115085714D01*
X38123095Y-114876190D01*
X38123095Y-114247619D01*
X38227857Y-114038095D01*
X38332619Y-113933333D01*
X38542142Y-113828571D01*
X38856428Y-113828571D01*
X39065952Y-113933333D01*
X39170714Y-114038095D01*
X39275476Y-114247619D01*
X39275476Y-114876190D01*
X39170714Y-115085714D01*
X39065952Y-115190476D01*
X38856428Y-115295238D01*
X38542142Y-115295238D01*
X41161190Y-113828571D02*
X41161190Y-115295238D01*
X40218333Y-113828571D02*
X40218333Y-114980952D01*
X40323095Y-115190476D01*
X40532619Y-115295238D01*
X40846904Y-115295238D01*
X41056428Y-115190476D01*
X41161190Y-115085714D01*
X41894523Y-113828571D02*
X42732619Y-113828571D01*
X42208809Y-113095238D02*
X42208809Y-114980952D01*
X42313571Y-115190476D01*
X42523095Y-115295238D01*
X42732619Y-115295238D01*
X8942857Y-10104285D02*
X9371428Y-10247142D01*
X10085714Y-10247142D01*
X10371428Y-10104285D01*
X10514285Y-9961428D01*
X10657142Y-9675714D01*
X10657142Y-9390000D01*
X10514285Y-9104285D01*
X10371428Y-8961428D01*
X10085714Y-8818571D01*
X9514285Y-8675714D01*
X9228571Y-8532857D01*
X9085714Y-8390000D01*
X8942857Y-8104285D01*
X8942857Y-7818571D01*
X9085714Y-7532857D01*
X9228571Y-7390000D01*
X9514285Y-7247142D01*
X10228571Y-7247142D01*
X10657142Y-7390000D01*
X11514285Y-8247142D02*
X12657142Y-8247142D01*
X11942857Y-7247142D02*
X11942857Y-9818571D01*
X12085714Y-10104285D01*
X12371428Y-10247142D01*
X12657142Y-10247142D01*
X14942857Y-10247142D02*
X14942857Y-8675714D01*
X14800000Y-8390000D01*
X14514285Y-8247142D01*
X13942857Y-8247142D01*
X13657142Y-8390000D01*
X14942857Y-10104285D02*
X14657142Y-10247142D01*
X13942857Y-10247142D01*
X13657142Y-10104285D01*
X13514285Y-9818571D01*
X13514285Y-9532857D01*
X13657142Y-9247142D01*
X13942857Y-9104285D01*
X14657142Y-9104285D01*
X14942857Y-8961428D01*
X15942857Y-8247142D02*
X17085714Y-8247142D01*
X16371428Y-7247142D02*
X16371428Y-9818571D01*
X16514285Y-10104285D01*
X16800000Y-10247142D01*
X17085714Y-10247142D01*
X19228571Y-10104285D02*
X18942857Y-10247142D01*
X18371428Y-10247142D01*
X18085714Y-10104285D01*
X17942857Y-9818571D01*
X17942857Y-8675714D01*
X18085714Y-8390000D01*
X18371428Y-8247142D01*
X18942857Y-8247142D01*
X19228571Y-8390000D01*
X19371428Y-8675714D01*
X19371428Y-8961428D01*
X17942857Y-9247142D01*
X20657142Y-9104285D02*
X22942857Y-9104285D01*
X23942857Y-7247142D02*
X24942857Y-10247142D01*
X25942857Y-7247142D01*
X28228571Y-10247142D02*
X28228571Y-8675714D01*
X28085714Y-8390000D01*
X27800000Y-8247142D01*
X27228571Y-8247142D01*
X26942857Y-8390000D01*
X28228571Y-10104285D02*
X27942857Y-10247142D01*
X27228571Y-10247142D01*
X26942857Y-10104285D01*
X26800000Y-9818571D01*
X26800000Y-9532857D01*
X26942857Y-9247142D01*
X27228571Y-9104285D01*
X27942857Y-9104285D01*
X28228571Y-8961428D01*
X29657142Y-10247142D02*
X29657142Y-8247142D01*
X29657142Y-8818571D02*
X29800000Y-8532857D01*
X29942857Y-8390000D01*
X30228571Y-8247142D01*
X30514285Y-8247142D01*
X31514285Y-10247142D02*
X31514285Y-8247142D01*
X31514285Y-7247142D02*
X31371428Y-7390000D01*
X31514285Y-7532857D01*
X31657142Y-7390000D01*
X31514285Y-7247142D01*
X31514285Y-7532857D01*
X34228571Y-10247142D02*
X34228571Y-8675714D01*
X34085714Y-8390000D01*
X33800000Y-8247142D01*
X33228571Y-8247142D01*
X32942857Y-8390000D01*
X34228571Y-10104285D02*
X33942857Y-10247142D01*
X33228571Y-10247142D01*
X32942857Y-10104285D01*
X32800000Y-9818571D01*
X32800000Y-9532857D01*
X32942857Y-9247142D01*
X33228571Y-9104285D01*
X33942857Y-9104285D01*
X34228571Y-8961428D01*
X35657142Y-10247142D02*
X35657142Y-7247142D01*
X35657142Y-8390000D02*
X35942857Y-8247142D01*
X36514285Y-8247142D01*
X36800000Y-8390000D01*
X36942857Y-8532857D01*
X37085714Y-8818571D01*
X37085714Y-9675714D01*
X36942857Y-9961428D01*
X36800000Y-10104285D01*
X36514285Y-10247142D01*
X35942857Y-10247142D01*
X35657142Y-10104285D01*
X38800000Y-10247142D02*
X38514285Y-10104285D01*
X38371428Y-9818571D01*
X38371428Y-7247142D01*
X41085714Y-10104285D02*
X40800000Y-10247142D01*
X40228571Y-10247142D01*
X39942857Y-10104285D01*
X39800000Y-9818571D01*
X39800000Y-8675714D01*
X39942857Y-8390000D01*
X40228571Y-8247142D01*
X40800000Y-8247142D01*
X41085714Y-8390000D01*
X41228571Y-8675714D01*
X41228571Y-8961428D01*
X39800000Y-9247142D01*
X44371428Y-7247142D02*
X45371428Y-10247142D01*
X46371428Y-7247142D01*
X49085714Y-9961428D02*
X48942857Y-10104285D01*
X48514285Y-10247142D01*
X48228571Y-10247142D01*
X47800000Y-10104285D01*
X47514285Y-9818571D01*
X47371428Y-9532857D01*
X47228571Y-8961428D01*
X47228571Y-8532857D01*
X47371428Y-7961428D01*
X47514285Y-7675714D01*
X47800000Y-7390000D01*
X48228571Y-7247142D01*
X48514285Y-7247142D01*
X48942857Y-7390000D01*
X49085714Y-7532857D01*
X51371428Y-8675714D02*
X50371428Y-8675714D01*
X50371428Y-10247142D02*
X50371428Y-7247142D01*
X51800000Y-7247142D01*
X39151428Y-39230952D02*
X39151428Y-37564285D01*
X39151428Y-38040476D02*
X39270476Y-37802380D01*
X39389523Y-37683333D01*
X39627619Y-37564285D01*
X39865714Y-37564285D01*
X41651428Y-39111904D02*
X41413333Y-39230952D01*
X40937142Y-39230952D01*
X40699047Y-39111904D01*
X40580000Y-38873809D01*
X40580000Y-37921428D01*
X40699047Y-37683333D01*
X40937142Y-37564285D01*
X41413333Y-37564285D01*
X41651428Y-37683333D01*
X41770476Y-37921428D01*
X41770476Y-38159523D01*
X40580000Y-38397619D01*
X42722857Y-39111904D02*
X42960952Y-39230952D01*
X43437142Y-39230952D01*
X43675238Y-39111904D01*
X43794285Y-38873809D01*
X43794285Y-38754761D01*
X43675238Y-38516666D01*
X43437142Y-38397619D01*
X43080000Y-38397619D01*
X42841904Y-38278571D01*
X42722857Y-38040476D01*
X42722857Y-37921428D01*
X42841904Y-37683333D01*
X43080000Y-37564285D01*
X43437142Y-37564285D01*
X43675238Y-37683333D01*
X45222857Y-39230952D02*
X44984761Y-39111904D01*
X44865714Y-38992857D01*
X44746666Y-38754761D01*
X44746666Y-38040476D01*
X44865714Y-37802380D01*
X44984761Y-37683333D01*
X45222857Y-37564285D01*
X45580000Y-37564285D01*
X45818095Y-37683333D01*
X45937142Y-37802380D01*
X46056190Y-38040476D01*
X46056190Y-38754761D01*
X45937142Y-38992857D01*
X45818095Y-39111904D01*
X45580000Y-39230952D01*
X45222857Y-39230952D01*
X47127619Y-37564285D02*
X47127619Y-39230952D01*
X47127619Y-37802380D02*
X47246666Y-37683333D01*
X47484761Y-37564285D01*
X47841904Y-37564285D01*
X48080000Y-37683333D01*
X48199047Y-37921428D01*
X48199047Y-39230952D01*
X50460952Y-39230952D02*
X50460952Y-37921428D01*
X50341904Y-37683333D01*
X50103809Y-37564285D01*
X49627619Y-37564285D01*
X49389523Y-37683333D01*
X50460952Y-39111904D02*
X50222857Y-39230952D01*
X49627619Y-39230952D01*
X49389523Y-39111904D01*
X49270476Y-38873809D01*
X49270476Y-38635714D01*
X49389523Y-38397619D01*
X49627619Y-38278571D01*
X50222857Y-38278571D01*
X50460952Y-38159523D01*
X51651428Y-37564285D02*
X51651428Y-39230952D01*
X51651428Y-37802380D02*
X51770476Y-37683333D01*
X52008571Y-37564285D01*
X52365714Y-37564285D01*
X52603809Y-37683333D01*
X52722857Y-37921428D01*
X52722857Y-39230952D01*
X54984761Y-39111904D02*
X54746666Y-39230952D01*
X54270476Y-39230952D01*
X54032380Y-39111904D01*
X53913333Y-38992857D01*
X53794285Y-38754761D01*
X53794285Y-38040476D01*
X53913333Y-37802380D01*
X54032380Y-37683333D01*
X54270476Y-37564285D01*
X54746666Y-37564285D01*
X54984761Y-37683333D01*
X57008571Y-39111904D02*
X56770476Y-39230952D01*
X56294285Y-39230952D01*
X56056190Y-39111904D01*
X55937142Y-38873809D01*
X55937142Y-37921428D01*
X56056190Y-37683333D01*
X56294285Y-37564285D01*
X56770476Y-37564285D01*
X57008571Y-37683333D01*
X57127619Y-37921428D01*
X57127619Y-38159523D01*
X55937142Y-38397619D01*
X8710476Y-38811904D02*
X8472380Y-38930952D01*
X7996190Y-38930952D01*
X7758095Y-38811904D01*
X7639047Y-38692857D01*
X7520000Y-38454761D01*
X7520000Y-37740476D01*
X7639047Y-37502380D01*
X7758095Y-37383333D01*
X7996190Y-37264285D01*
X8472380Y-37264285D01*
X8710476Y-37383333D01*
X10853333Y-37264285D02*
X10853333Y-38930952D01*
X9781904Y-37264285D02*
X9781904Y-38573809D01*
X9900952Y-38811904D01*
X10139047Y-38930952D01*
X10496190Y-38930952D01*
X10734285Y-38811904D01*
X10853333Y-38692857D01*
X11686666Y-37264285D02*
X12639047Y-37264285D01*
X12043809Y-36430952D02*
X12043809Y-38573809D01*
X12162857Y-38811904D01*
X12400952Y-38930952D01*
X12639047Y-38930952D01*
X13829523Y-38930952D02*
X13591428Y-38811904D01*
X13472380Y-38692857D01*
X13353333Y-38454761D01*
X13353333Y-37740476D01*
X13472380Y-37502380D01*
X13591428Y-37383333D01*
X13829523Y-37264285D01*
X14186666Y-37264285D01*
X14424761Y-37383333D01*
X14543809Y-37502380D01*
X14662857Y-37740476D01*
X14662857Y-38454761D01*
X14543809Y-38692857D01*
X14424761Y-38811904D01*
X14186666Y-38930952D01*
X13829523Y-38930952D01*
X15377142Y-37264285D02*
X16329523Y-37264285D01*
X15734285Y-38930952D02*
X15734285Y-36788095D01*
X15853333Y-36550000D01*
X16091428Y-36430952D01*
X16329523Y-36430952D01*
X16805714Y-37264285D02*
X17758095Y-37264285D01*
X17162857Y-38930952D02*
X17162857Y-36788095D01*
X17281904Y-36550000D01*
X17520000Y-36430952D01*
X17758095Y-36430952D01*
X40996666Y-77030952D02*
X40996666Y-75364285D01*
X40996666Y-75840476D02*
X41115714Y-75602380D01*
X41234761Y-75483333D01*
X41472857Y-75364285D01*
X41710952Y-75364285D01*
X43496666Y-76911904D02*
X43258571Y-77030952D01*
X42782380Y-77030952D01*
X42544285Y-76911904D01*
X42425238Y-76673809D01*
X42425238Y-75721428D01*
X42544285Y-75483333D01*
X42782380Y-75364285D01*
X43258571Y-75364285D01*
X43496666Y-75483333D01*
X43615714Y-75721428D01*
X43615714Y-75959523D01*
X42425238Y-76197619D01*
X44568095Y-76911904D02*
X44806190Y-77030952D01*
X45282380Y-77030952D01*
X45520476Y-76911904D01*
X45639523Y-76673809D01*
X45639523Y-76554761D01*
X45520476Y-76316666D01*
X45282380Y-76197619D01*
X44925238Y-76197619D01*
X44687142Y-76078571D01*
X44568095Y-75840476D01*
X44568095Y-75721428D01*
X44687142Y-75483333D01*
X44925238Y-75364285D01*
X45282380Y-75364285D01*
X45520476Y-75483333D01*
X46710952Y-76792857D02*
X46830000Y-76911904D01*
X46710952Y-77030952D01*
X46591904Y-76911904D01*
X46710952Y-76792857D01*
X46710952Y-77030952D01*
X50163333Y-77030952D02*
X49925238Y-76911904D01*
X49806190Y-76673809D01*
X49806190Y-74530952D01*
X52068095Y-76911904D02*
X51830000Y-77030952D01*
X51353809Y-77030952D01*
X51115714Y-76911904D01*
X50996666Y-76673809D01*
X50996666Y-75721428D01*
X51115714Y-75483333D01*
X51353809Y-75364285D01*
X51830000Y-75364285D01*
X52068095Y-75483333D01*
X52187142Y-75721428D01*
X52187142Y-75959523D01*
X50996666Y-76197619D01*
X53020476Y-75364285D02*
X53615714Y-77030952D01*
X54210952Y-75364285D01*
X55163333Y-76792857D02*
X55282380Y-76911904D01*
X55163333Y-77030952D01*
X55044285Y-76911904D01*
X55163333Y-76792857D01*
X55163333Y-77030952D01*
X25002380Y-75721428D02*
X24169047Y-75721428D01*
X24169047Y-77030952D02*
X24169047Y-74530952D01*
X25359523Y-74530952D01*
X26311904Y-77030952D02*
X26311904Y-74530952D01*
X27145238Y-76316666D01*
X27978571Y-74530952D01*
X27978571Y-77030952D01*
X31430952Y-77030952D02*
X31192857Y-76911904D01*
X31073809Y-76673809D01*
X31073809Y-74530952D01*
X33335714Y-76911904D02*
X33097619Y-77030952D01*
X32621428Y-77030952D01*
X32383333Y-76911904D01*
X32264285Y-76673809D01*
X32264285Y-75721428D01*
X32383333Y-75483333D01*
X32621428Y-75364285D01*
X33097619Y-75364285D01*
X33335714Y-75483333D01*
X33454761Y-75721428D01*
X33454761Y-75959523D01*
X32264285Y-76197619D01*
X34288095Y-75364285D02*
X34883333Y-77030952D01*
X35478571Y-75364285D01*
X36430952Y-76792857D02*
X36550000Y-76911904D01*
X36430952Y-77030952D01*
X36311904Y-76911904D01*
X36430952Y-76792857D01*
X36430952Y-77030952D01*
X19438809Y-115295238D02*
X18391190Y-115295238D01*
X18391190Y-113095238D01*
X20172142Y-115295238D02*
X20172142Y-113095238D01*
X21010238Y-113095238D01*
X21219761Y-113200000D01*
X21324523Y-113304761D01*
X21429285Y-113514285D01*
X21429285Y-113828571D01*
X21324523Y-114038095D01*
X21219761Y-114142857D01*
X21010238Y-114247619D01*
X20172142Y-114247619D01*
X24362619Y-115295238D02*
X24153095Y-115190476D01*
X24048333Y-115085714D01*
X23943571Y-114876190D01*
X23943571Y-114247619D01*
X24048333Y-114038095D01*
X24153095Y-113933333D01*
X24362619Y-113828571D01*
X24676904Y-113828571D01*
X24886428Y-113933333D01*
X24991190Y-114038095D01*
X25095952Y-114247619D01*
X25095952Y-114876190D01*
X24991190Y-115085714D01*
X24886428Y-115190476D01*
X24676904Y-115295238D01*
X24362619Y-115295238D01*
X26981666Y-113828571D02*
X26981666Y-115295238D01*
X26038809Y-113828571D02*
X26038809Y-114980952D01*
X26143571Y-115190476D01*
X26353095Y-115295238D01*
X26667380Y-115295238D01*
X26876904Y-115190476D01*
X26981666Y-115085714D01*
X27715000Y-113828571D02*
X28553095Y-113828571D01*
X28029285Y-113095238D02*
X28029285Y-114980952D01*
X28134047Y-115190476D01*
X28343571Y-115295238D01*
X28553095Y-115295238D01*
X4473571Y-101220476D02*
X4683095Y-101325238D01*
X5102142Y-101325238D01*
X5311666Y-101220476D01*
X5416428Y-101010952D01*
X5416428Y-100906190D01*
X5311666Y-100696666D01*
X5102142Y-100591904D01*
X4787857Y-100591904D01*
X4578333Y-100487142D01*
X4473571Y-100277619D01*
X4473571Y-100172857D01*
X4578333Y-99963333D01*
X4787857Y-99858571D01*
X5102142Y-99858571D01*
X5311666Y-99963333D01*
X6359285Y-101325238D02*
X6359285Y-99858571D01*
X6359285Y-99125238D02*
X6254523Y-99230000D01*
X6359285Y-99334761D01*
X6464047Y-99230000D01*
X6359285Y-99125238D01*
X6359285Y-99334761D01*
X8349761Y-99858571D02*
X8349761Y-101639523D01*
X8245000Y-101849047D01*
X8140238Y-101953809D01*
X7930714Y-102058571D01*
X7616428Y-102058571D01*
X7406904Y-101953809D01*
X8349761Y-101220476D02*
X8140238Y-101325238D01*
X7721190Y-101325238D01*
X7511666Y-101220476D01*
X7406904Y-101115714D01*
X7302142Y-100906190D01*
X7302142Y-100277619D01*
X7406904Y-100068095D01*
X7511666Y-99963333D01*
X7721190Y-99858571D01*
X8140238Y-99858571D01*
X8349761Y-99963333D01*
X9397380Y-101115714D02*
X9502142Y-101220476D01*
X9397380Y-101325238D01*
X9292619Y-101220476D01*
X9397380Y-101115714D01*
X9397380Y-101325238D01*
X12121190Y-101325238D02*
X12121190Y-99858571D01*
X12121190Y-99125238D02*
X12016428Y-99230000D01*
X12121190Y-99334761D01*
X12225952Y-99230000D01*
X12121190Y-99125238D01*
X12121190Y-99334761D01*
X13168809Y-99858571D02*
X13168809Y-101325238D01*
X13168809Y-100068095D02*
X13273571Y-99963333D01*
X13483095Y-99858571D01*
X13797380Y-99858571D01*
X14006904Y-99963333D01*
X14111666Y-100172857D01*
X14111666Y-101325238D01*
X46383571Y-101325238D02*
X46383571Y-99858571D01*
X46383571Y-100277619D02*
X46488333Y-100068095D01*
X46593095Y-99963333D01*
X46802619Y-99858571D01*
X47012142Y-99858571D01*
X48583571Y-101220476D02*
X48374047Y-101325238D01*
X47955000Y-101325238D01*
X47745476Y-101220476D01*
X47640714Y-101010952D01*
X47640714Y-100172857D01*
X47745476Y-99963333D01*
X47955000Y-99858571D01*
X48374047Y-99858571D01*
X48583571Y-99963333D01*
X48688333Y-100172857D01*
X48688333Y-100382380D01*
X47640714Y-100591904D01*
X49526428Y-101220476D02*
X49735952Y-101325238D01*
X50155000Y-101325238D01*
X50364523Y-101220476D01*
X50469285Y-101010952D01*
X50469285Y-100906190D01*
X50364523Y-100696666D01*
X50155000Y-100591904D01*
X49840714Y-100591904D01*
X49631190Y-100487142D01*
X49526428Y-100277619D01*
X49526428Y-100172857D01*
X49631190Y-99963333D01*
X49840714Y-99858571D01*
X50155000Y-99858571D01*
X50364523Y-99963333D01*
X51412142Y-101115714D02*
X51516904Y-101220476D01*
X51412142Y-101325238D01*
X51307380Y-101220476D01*
X51412142Y-101115714D01*
X51412142Y-101325238D01*
X54135952Y-101325238D02*
X54135952Y-99858571D01*
X54135952Y-99125238D02*
X54031190Y-99230000D01*
X54135952Y-99334761D01*
X54240714Y-99230000D01*
X54135952Y-99125238D01*
X54135952Y-99334761D01*
X55183571Y-99858571D02*
X55183571Y-101325238D01*
X55183571Y-100068095D02*
X55288333Y-99963333D01*
X55497857Y-99858571D01*
X55812142Y-99858571D01*
X56021666Y-99963333D01*
X56126428Y-100172857D01*
X56126428Y-101325238D01*
X33985000Y-100172857D02*
X33251666Y-100172857D01*
X33251666Y-101325238D02*
X33251666Y-99125238D01*
X34299285Y-99125238D01*
X35137380Y-101325238D02*
X35137380Y-99125238D01*
X35870714Y-100696666D01*
X36604047Y-99125238D01*
X36604047Y-101325238D01*
X39327857Y-101325238D02*
X39327857Y-99858571D01*
X39327857Y-99125238D02*
X39223095Y-99230000D01*
X39327857Y-99334761D01*
X39432619Y-99230000D01*
X39327857Y-99125238D01*
X39327857Y-99334761D01*
X40375476Y-99858571D02*
X40375476Y-101325238D01*
X40375476Y-100068095D02*
X40480238Y-99963333D01*
X40689761Y-99858571D01*
X41004047Y-99858571D01*
X41213571Y-99963333D01*
X41318333Y-100172857D01*
X41318333Y-101325238D01*
X19386428Y-101325238D02*
X18129285Y-101325238D01*
X18757857Y-101325238D02*
X18757857Y-99125238D01*
X18548333Y-99439523D01*
X18338809Y-99649047D01*
X18129285Y-99753809D01*
X20119761Y-99858571D02*
X20643571Y-101325238D01*
X21167380Y-99858571D01*
X23576904Y-99020476D02*
X21691190Y-101849047D01*
X24624523Y-101325238D02*
X24415000Y-101220476D01*
X24310238Y-101115714D01*
X24205476Y-100906190D01*
X24205476Y-100277619D01*
X24310238Y-100068095D01*
X24415000Y-99963333D01*
X24624523Y-99858571D01*
X24938809Y-99858571D01*
X25148333Y-99963333D01*
X25253095Y-100068095D01*
X25357857Y-100277619D01*
X25357857Y-100906190D01*
X25253095Y-101115714D01*
X25148333Y-101220476D01*
X24938809Y-101325238D01*
X24624523Y-101325238D01*
X27243571Y-101220476D02*
X27034047Y-101325238D01*
X26615000Y-101325238D01*
X26405476Y-101220476D01*
X26300714Y-101115714D01*
X26195952Y-100906190D01*
X26195952Y-100277619D01*
X26300714Y-100068095D01*
X26405476Y-99963333D01*
X26615000Y-99858571D01*
X27034047Y-99858571D01*
X27243571Y-99963333D01*
X27872142Y-99858571D02*
X28710238Y-99858571D01*
X28186428Y-99125238D02*
X28186428Y-101010952D01*
X28291190Y-101220476D01*
X28500714Y-101325238D01*
X28710238Y-101325238D01*
%LPC*%
D11*
X53220000Y-125500000D03*
X53220000Y-3000000D03*
X7500000Y-125500000D03*
X7500000Y-3000000D03*
M02*
